<svg width="48" height="48" viewBox="0 0 48 48" fill="none" xmlns="http://www.w3.org/2000/svg">
<path d="M28 34H2V30.7619C2 26.2911 5.63769 22.6667 10.125 22.6667H19.875C24.3623 22.6667 28 26.2911 28 30.7619V34ZM15 19.4286C9.61522 19.4286 5.25 15.0793 5.25 9.71429C5.25 4.34923 9.61522 0 15 0C20.3848 0 24.75 4.34923 24.75 9.71429C24.75 15.0793 20.3848 19.4286 15 19.4286Z" fill="white"/>
<path d="M42.2914 28.9999H43.0002C43.5525 28.9999 44.0002 29.4477 44.0002 29.9999V36.9999C44.0002 37.5522 43.5525 37.9999 43.0002 37.9999H41.0002L36.8319 32.1643C36.3345 31.468 35.4493 31.1652 34.6297 31.4111L32.1444 32.1567C31.4397 32.3681 30.6758 32.1755 30.1555 31.6552L29.8628 31.3625C29.4166 30.9163 29.4901 30.1734 30.0152 29.8233L35.4162 26.2226C36.0752 25.7833 36.9312 25.7742 37.5994 26.1994L41.7546 28.8436C41.915 28.9457 42.1013 28.9999 42.2914 28.9999ZM28.0271 37.2947L26.4113 38.7085C25.9399 39.1209 25.9594 39.8603 26.452 40.2474L31.5928 44.2865C32.0728 44.6637 32.7759 44.5264 33.0788 43.9963L33.7827 42.7645C34.2127 42.012 34.1091 41.0682 33.5261 40.4269L30.824 37.4545C30.0909 36.6481 28.8472 36.5771 28.0271 37.2947ZM30.0456 28H26C25.4477 28 25 28.4477 25 29V36.5158C25 36.9242 25.1247 37.3173 25.3502 37.6464C25.3741 37.6238 25.3986 37.6015 25.4236 37.5796L27.0393 36.1658C28.4746 34.91 30.651 35.0343 31.9339 36.4455L34.6361 39.4179C35.6563 40.5401 35.8376 42.1918 35.0851 43.5087L34.4308 44.6538C34.9937 44.8671 35.635 44.819 36.169 44.4986L40.5782 41.8531C41.0786 41.5528 41.2166 40.8896 40.8776 40.4146L35.6109 33.0361C35.4865 32.862 35.2652 32.7864 35.0603 32.8478L32.5751 33.5934C31.3418 33.9634 30.0049 33.6264 29.0945 32.7159L28.8017 32.4231C27.6862 31.3076 27.8701 29.4503 29.1827 28.5752L30.0456 28Z" fill="#B6D4FC"/>
</svg>
