<svg width="48" height="48" viewBox="0 0 48 48" fill="none" xmlns="http://www.w3.org/2000/svg">
<g clip-path="url(#clip0_1_6304)">
<path d="M0 27.3269C0.00180054 32.5564 3.63312 36.9271 8.48304 38L9.63144 34.5136C7.46424 34.1557 5.6223 32.8187 4.56318 30.966H9C10.9883 30.966 12.6 29.335 12.6 27.3229V20.0368C12.6 18.0248 10.9883 16.3938 9 16.3938H3.71142C4.5972 9.20544 10.6567 3.64306 18 3.64306C25.3433 3.64306 31.4028 9.20544 32.2886 16.3938H27C25.0118 16.3938 23.4 18.0248 23.4 20.0368V27.3229C23.4 29.335 25.0118 30.966 27 30.966H32.4C34.3882 30.966 36 29.335 36 27.3229V18.2153C36 8.15526 27.9411 0 18 0C8.05896 0 0 8.15526 0 18.2153V20.0344V20.0368V27.3229V27.3269Z" fill="white"/>
<path d="M36 46C30.4771 46 26 41.5228 26 36C26 30.4771 30.4771 26 36 26C41.5228 26 46 30.4771 46 36C46 41.5228 41.5228 46 36 46ZM37 36V31H35V38H41V36H37Z" fill="#B6D4FC"/>
</g>
<defs>
<clipPath id="clip0_1_6304">
<rect width="48" height="48" fill="white"/>
</clipPath>
</defs>
</svg>
