<svg width="48" height="48" viewBox="0 0 48 48" fill="none" xmlns="http://www.w3.org/2000/svg">
<g clip-path="url(#clip0_1_6320)">
<path d="M24 11C31.1796 11 37 16.8203 37 24C37 31.1796 31.1796 37 24 37C16.8203 37 11 31.1796 11 24C11 16.8203 16.8203 11 24 11ZM29.2056 25.141C28.7566 24.4593 28.4326 23.967 27.2009 24.1622C24.8732 24.5317 24.6152 24.9391 24.504 25.6087L24.4727 25.8126L24.4411 26.0276C24.3141 26.9156 24.3189 27.2516 24.7266 27.68C26.3713 29.4057 27.3566 30.6495 27.6551 31.377C27.8008 31.7329 28.1755 32.8076 27.9177 33.8705C29.5084 33.2386 30.9103 32.2332 32.0149 30.9627C32.1581 30.4767 32.2616 29.8716 32.2616 29.1373V29.0014C32.2616 27.8021 32.2616 27.2552 31.414 26.7708C31.0564 26.5676 30.7895 26.4453 30.5757 26.3483C30.0983 26.1312 29.7823 25.9886 29.3557 25.3649C29.3049 25.2906 29.2552 25.2165 29.2056 25.141ZM24 13.3833C20.9874 13.3833 18.2678 14.6382 16.3355 16.6536C16.5655 16.8134 16.766 17.0379 16.9037 17.3473C17.1689 17.9424 17.1689 18.5546 17.1689 19.0959C17.1683 19.5231 17.1677 19.9274 17.3049 20.2209C17.4928 20.6217 18.3013 20.792 19.0151 20.9416C19.2702 20.9953 19.5331 21.0501 19.7724 21.1163C20.4303 21.299 20.9392 21.8895 21.3472 22.3636C21.5165 22.561 21.7665 22.8512 21.8918 22.9232C21.9572 22.8763 22.167 22.649 22.2709 22.2755C22.3499 21.9911 22.3274 21.7376 22.2111 21.6006C21.4842 20.7428 21.5238 19.0902 21.7484 18.4814C22.1023 17.5209 23.2076 17.5918 24.0156 17.6443C24.3169 17.6637 24.6014 17.6823 24.8134 17.6557C25.6227 17.5542 25.8715 16.324 26.0475 16.083C26.4272 15.5628 27.5889 14.7792 28.3105 14.2949C26.9932 13.709 25.5346 13.3833 24 13.3833Z" fill="#B6D4FC"/>
<path fill-rule="evenodd" clip-rule="evenodd" d="M45.0885 20.4753C44.8213 20.8105 44.4448 21.0627 43.996 21.1713C43.7511 21.2306 43.5059 21.242 43.2701 21.2116C43.003 21.192 42.735 21.1234 42.4787 21.0012L37.5059 18.6305C36.5089 18.1552 36.0859 16.9616 36.5613 15.9645C37.0366 14.9675 38.2302 14.5445 39.2273 15.0199L39.8989 15.34C36.843 9.73608 30.8973 5.93457 24.067 5.93457C18.6499 5.93457 13.789 8.32557 10.485 12.111C10.4358 12.1865 10.3809 12.2596 10.3204 12.3296C9.92591 12.7858 9.55722 13.2588 9.21467 13.7465C8.15327 15.2877 7.32557 17.0024 6.78286 18.8396C6.74009 18.9843 6.6824 19.1206 6.61195 19.2472C5.19544 24.3193 6.00431 29.9647 9.30287 34.5818C10.4549 36.1943 11.824 37.5602 13.3421 38.668C16.3152 40.8305 19.9747 42.106 23.9312 42.106C32.1039 42.106 39.0107 36.6636 41.2153 29.201C41.5282 28.1416 42.6406 27.5366 43.7 27.8495C44.7593 28.1625 45.3643 29.2749 45.0514 30.3342C43.0742 37.0271 38.0026 42.3938 31.4912 44.774C31.387 44.8329 31.276 44.8832 31.1588 44.9238C24.1049 47.3644 16.2278 46.0428 10.3569 41.4255C6.52313 38.4196 3.71152 34.1696 2.52881 29.2836C2.50097 29.1686 2.48368 29.0535 2.47633 28.9394C1.11969 22.8946 2.37928 16.4911 5.97451 11.4005C9.95073 5.68028 16.57 1.93457 24.067 1.93457C32.6997 1.93457 40.169 6.90095 43.7789 14.131L44.1942 13.2599C44.6695 12.2628 45.8631 11.8398 46.8602 12.3152C47.8573 12.7905 48.2802 13.9841 47.8049 14.9812L45.4342 19.9539C45.3417 20.148 45.2246 20.3225 45.0885 20.4753Z" fill="white"/>
</g>
<defs>
<clipPath id="clip0_1_6320">
<rect width="48" height="48" fill="white"/>
</clipPath>
</defs>
</svg>
