<svg width="48" height="48" viewBox="0 0 48 48" fill="none" xmlns="http://www.w3.org/2000/svg">
<path d="M40 0V4.42105C40 25.7027 28.0611 35.3684 13.3334 35.3684L9.10747 35.3682C9.57747 28.7094 11.6608 24.6801 17.1019 19.8923C19.7775 17.5379 19.5522 16.1786 18.2331 16.9594C9.15836 22.3299 4.65132 29.5905 4.45144 41.1825L4.44446 42H0C0 38.9877 0.257134 36.252 0.768358 33.7508C0.256112 30.8901 0 27.0073 0 22.1053C0 9.89686 9.94925 0 22.2222 0C26.6666 0 31.1111 2.21053 40 0Z" fill="white"/>
<circle cx="37" cy="37" r="7" fill="#0667EA"/>
<path d="M36 47C30.4771 47 26 42.5228 26 37C26 31.4771 30.4771 27 36 27C41.5228 27 46 31.4771 46 37C46 42.5228 41.5228 47 36 47ZM35.0026 41L42.0737 33.9289L40.6595 32.5147L35.0026 38.1716L32.1742 35.3431L30.76 36.7574L35.0026 41Z" fill="#B6D4FC"/>
</svg>
