<svg width="48" height="48" viewBox="0 0 48 48" fill="none" xmlns="http://www.w3.org/2000/svg">
<path fill-rule="evenodd" clip-rule="evenodd" d="M6.84961 4H36.2996C38.3983 4 40.0996 5.70132 40.0996 7.8V40.1C40.0996 41.1493 39.249 42 38.1996 42H11.5996C10.5503 42 9.69961 41.1579 9.69961 40.1086V7.8C9.69961 4 6.84961 4 6.84961 4ZM31.6444 32.2536C31.2539 31.8631 30.6207 31.8631 30.2302 32.2536C29.8397 32.6441 29.8397 33.2773 30.2302 33.6678L32.5857 36.0232L30.2311 38.3777C29.8405 38.7682 29.8405 39.4014 30.231 39.7919C30.6215 40.1824 31.2547 40.1825 31.6453 39.792L34 37.4374L36.3545 39.7918C36.745 40.1824 37.3782 40.1823 37.7687 39.7918C38.1592 39.4013 38.1592 38.7681 37.7687 38.3776L35.4142 36.0233L37.7696 33.668C38.1601 33.2775 38.1602 32.6444 37.7696 32.2538C37.3791 31.8633 36.746 31.8633 36.3554 32.2538L34 34.6091L31.6444 32.2536ZM27.8167 12.5497C27.8167 12.025 27.3913 11.5997 26.8667 11.5997H16.4167C15.892 11.5997 15.4667 12.025 15.4667 12.5497C15.4667 13.0744 15.892 13.4997 16.4167 13.4997H26.8667C27.3913 13.4997 27.8167 13.0744 27.8167 12.5497ZM31.5491 18.2497C31.5491 17.725 31.1238 17.2997 30.5991 17.2997H16.4168C15.8921 17.2997 15.4668 17.725 15.4668 18.2497C15.4668 18.7743 15.8921 19.1997 16.4168 19.1997H30.5991C31.1238 19.1997 31.5491 18.7743 31.5491 18.2497Z" fill="white"/>
<path d="M4.00018 10.65C4.00018 11.1747 4.42551 11.6 4.95018 11.6H9.70019V6.85C9.70019 5.19315 8.49915 4 6.85018 4C5.20122 4 4.00018 5.19315 4.00018 6.85V10.65Z" fill="#B6D4FC"/>
<circle cx="36" cy="35" r="7" fill="#0667EA"/>
<path d="M35 45C29.4771 45 25 40.5228 25 35C25 29.4771 29.4771 25 35 25C40.5228 25 45 29.4771 45 35C45 40.5228 40.5228 45 35 45ZM34.0026 39L41.0737 31.9289L39.6595 30.5147L34.0026 36.1716L31.1742 33.3431L29.76 34.7574L34.0026 39Z" fill="#B6D4FC"/>
</svg>
