<svg width="48" height="48" viewBox="0 0 48 48" fill="none" xmlns="http://www.w3.org/2000/svg">
<path d="M14.5455 0C21.9409 0 28.0473 5.46412 28.9704 12.5369L33.0622 18.9067C33.3316 19.3261 33.2773 19.9525 32.6533 20.2171L29.0909 21.7278V27C29.0909 28.9883 27.4629 30.6 25.4545 30.6H21.82L21.8182 36H5.45455L5.455 29.351C5.45515 27.2254 4.66093 25.2157 3.19182 23.402C1.19467 20.9363 0 17.8063 0 14.4C0 6.4471 6.51222 0 14.5455 0ZM36.6427 28.9843L33.6169 26.9872C35.352 24.4156 36.3636 21.3248 36.3636 18.0002C36.3636 14.6754 35.352 11.5846 33.6169 9.013L36.6427 7.01588C38.7636 10.1589 40 13.9366 40 18.0002C40 22.0637 38.7636 25.8412 36.6427 28.9843Z" fill="white"/>
<path d="M25.7831 26.826L34 25L42.2169 26.826C42.6745 26.9277 43 27.3335 43 27.8022V37.7889C43 39.795 41.9974 41.6684 40.3282 42.7812L34 47L27.6718 42.7812C26.0026 41.6684 25 39.795 25 37.7889V27.8022C25 27.3335 25.3255 26.9277 25.7831 26.826ZM34 37.5L36.9389 39.0451L36.3776 35.7725L38.7553 33.4549L35.4695 32.9775L34 30L32.5305 32.9775L29.2447 33.4549L31.6224 35.7725L31.0611 39.0451L34 37.5Z" fill="#B6D4FC"/>
</svg>
