<svg width="49" height="32" viewBox="0 0 49 32" fill="none" xmlns="http://www.w3.org/2000/svg">
<g id="svgexport-72" clip-path="url(#clip0_6_3942)">
<path id="Vector" fill-rule="evenodd" clip-rule="evenodd" d="M39.6292 11.8583C40.2454 12.347 40.408 12.3419 40.9639 11.7635C41.6848 11.112 42.278 10.2933 42.6385 9.30918C43.6892 6.44127 42.5623 2.60052 40.0141 0.789478C39.5337 0.445805 39.4055 0.439115 38.9885 0.82208C36.682 2.90832 36.1615 6.92248 37.6665 9.6621C38.1555 10.5538 38.8491 11.3036 39.6292 11.8583Z" fill="#8D91A1"/>
<path id="Vector_2" fill-rule="evenodd" clip-rule="evenodd" d="M9.8017 11.8563C9.18552 12.3451 9.02294 12.3399 8.46699 11.7615C7.74622 11.11 7.15297 10.2913 6.79243 9.30712C5.74184 6.43931 6.86866 2.59857 9.41692 0.78752C9.89723 0.443852 10.0254 0.437164 10.4425 0.820122C12.749 2.90637 13.2694 6.92052 11.7644 9.66011C11.2754 10.5518 10.5819 11.3016 9.8017 11.8563Z" fill="#8D91A1"/>
<path id="Vector_3" fill-rule="evenodd" clip-rule="evenodd" d="M39.1712 17.6169C39.1272 18.3945 39.2263 18.5215 40.0279 18.6285C40.9861 18.8246 42.0079 18.8212 43.0305 18.5353C46.0103 17.7023 48.5228 14.5611 48.5311 11.4677C48.5346 10.8834 48.4653 10.7769 47.906 10.667C44.8387 10.0402 41.222 11.9658 39.8389 14.7669C39.3882 15.6779 39.1739 16.6697 39.1712 17.6169Z" fill="#8D91A1"/>
<path id="Vector_4" fill-rule="evenodd" clip-rule="evenodd" d="M10.2558 17.6169C10.2998 18.3945 10.2006 18.5215 9.39905 18.6285C8.44084 18.8246 7.41904 18.8212 6.39651 18.5353C3.41673 17.7023 0.904122 14.5611 0.89587 11.4677C0.892408 10.8834 0.961683 10.7769 1.52103 10.667C4.58831 10.0402 8.20495 11.9658 9.58811 14.7669C10.0388 15.6779 10.2531 16.6697 10.2558 17.6169Z" fill="#8D91A1"/>
<path id="Vector_5" fill-rule="evenodd" clip-rule="evenodd" d="M35.9523 22.5507C35.4776 23.1738 35.4885 23.3336 36.0953 23.86C36.7822 24.5461 37.6344 25.1009 38.6464 25.4211C41.5956 26.3539 45.4564 25.1111 47.2062 22.5413C47.5384 22.0569 47.5407 21.9306 47.1372 21.5339C44.9378 19.3384 40.8431 18.9672 38.1138 20.5434C37.2255 21.0555 36.4883 21.764 35.9523 22.5507Z" fill="#8D91A1"/>
<path id="Vector_6" fill-rule="evenodd" clip-rule="evenodd" d="M13.4786 22.5487C13.9533 23.1718 13.9424 23.3316 13.3356 23.8581C12.6487 24.5441 11.7965 25.099 10.7845 25.4191C7.83537 26.3519 3.97455 25.1091 2.22469 22.5393C1.89251 22.0549 1.89022 21.9286 2.29373 21.5318C4.49312 19.3365 8.58777 18.9652 11.3171 20.5414C12.2054 21.0536 12.9426 21.762 13.4786 22.5487Z" fill="#8D91A1"/>
<path id="Vector_7" fill-rule="evenodd" clip-rule="evenodd" d="M28.7444 25.8667C28.056 26.2508 28.0011 26.4015 28.3432 27.123C28.6939 28.0222 29.2493 28.8662 30.0467 29.558C32.3704 31.574 36.414 31.955 39.0623 30.2888C39.5637 29.9755 39.6172 29.8606 39.4086 29.3381C38.2854 26.4602 34.6836 24.5079 31.5413 24.8779C30.519 24.9976 29.5555 25.3566 28.7444 25.8667Z" fill="#8D91A1"/>
<path id="Vector_8" fill-rule="evenodd" clip-rule="evenodd" d="M20.6865 25.8667C21.3749 26.2508 21.4298 26.4015 21.0877 27.123C20.7371 28.0222 20.1815 28.8662 19.3842 29.558C17.0605 31.574 13.0169 31.955 10.3686 30.2888C9.86719 29.9755 9.81377 29.8606 10.0223 29.3381C11.1456 26.4602 14.7474 24.5079 17.8895 24.8779C18.9119 24.9976 19.8755 25.3566 20.6865 25.8667Z" fill="#8D91A1"/>
<path id="Vector_9" fill-rule="evenodd" clip-rule="evenodd" d="M38.8617 5.39569C39.1123 5.29402 39.3991 5.41149 39.5024 5.65806C40.2769 7.50652 40.704 9.53143 40.704 11.6533C40.704 18.7832 35.8865 24.8044 29.2814 26.739C29.0216 26.8151 28.7483 26.6696 28.6711 26.4139C28.5937 26.1582 28.7417 25.8894 29.0014 25.8133C35.2018 23.9973 39.7225 18.3442 39.7225 11.6533C39.7225 9.65996 39.3216 7.75993 38.5951 6.02626C38.4918 5.77968 38.6112 5.49737 38.8617 5.39569ZM10.5636 5.39569C10.8141 5.49737 10.9335 5.77968 10.8302 6.02626C10.1038 7.75993 9.70285 9.65996 9.70285 11.6533C9.70285 18.3442 14.2234 23.9973 20.4239 25.8133C20.6837 25.8894 20.8316 26.1582 20.7542 26.4139C20.677 26.6696 20.4037 26.8151 20.1439 26.739C13.5388 24.8044 8.72141 18.7832 8.72141 11.6533C8.72141 9.53143 9.14837 7.50652 9.92288 5.65806C10.0262 5.41149 10.3131 5.29402 10.5636 5.39569Z" fill="#8D91A1"/>
<path id="Vector_10" fill-rule="evenodd" clip-rule="evenodd" d="M23.4606 1.41629L23.0415 1.82715C21.2869 3.54719 19.9744 5.70377 19.2866 8.11733L19.2465 8.25767H14.3541L14.464 7.99276C15.8811 4.57883 19.0522 2.05331 22.8753 1.50086L23.4606 1.41629ZM25.455 1.41656L26.0406 1.50137C29.8621 2.05487 33.0317 4.57987 34.4483 7.99276L34.5582 8.25767H29.6687L29.6287 8.11733C28.9409 5.70399 27.6287 3.5476 25.8743 1.82764L25.455 1.41656ZM24.4576 2.22703L24.5898 2.34659C26.2729 3.86924 27.5569 5.81246 28.2698 8.00693L28.3512 8.25767H20.5641L20.6455 8.00693C21.3585 5.81246 22.6424 3.86924 24.3255 2.34659L24.4576 2.22703ZM13.9662 9.50681H18.9639L18.9279 9.72921C18.808 10.4705 18.7456 11.2307 18.7456 12.0052C18.7456 12.996 18.8476 13.9632 19.0416 14.8974L19.0895 15.1281H14.1399L14.0989 14.9899C13.8177 14.0432 13.6669 13.0417 13.6669 12.0057C13.6669 11.1985 13.7584 10.4123 13.9319 9.65668L13.9662 9.50681ZM20.2555 9.50681H28.6598L28.6888 9.66491C28.8278 10.4243 28.9003 11.2064 28.9003 12.0052C28.9003 13.0281 28.7813 14.0237 28.5562 14.9793L28.5212 15.1281H20.3942L20.3591 14.9793C20.134 14.0237 20.015 13.0281 20.015 12.0052C20.015 11.2064 20.0876 10.4243 20.2266 9.66491L20.2555 9.50681ZM29.9516 9.50681H34.9461L34.9805 9.65668C35.1539 10.4123 35.2455 11.1985 35.2455 12.0057C35.2455 13.0417 35.0947 14.0432 34.8136 14.9899L34.7725 15.1281H29.8257L29.8737 14.8974C30.0678 13.9632 30.1696 12.996 30.1696 12.0052C30.1696 11.2307 30.1073 10.4705 29.9875 9.72921L29.9516 9.50681ZM14.6159 16.3773H19.4334L19.4776 16.5092C20.2034 18.6744 21.4384 20.612 23.0429 22.1845L23.462 22.5953L22.8767 22.5108C19.2942 21.9936 16.2839 19.7437 14.7528 16.6537L14.6159 16.3773ZM20.7702 16.3773H28.1451L28.0454 16.6373C27.303 18.5724 26.1089 20.2894 24.5898 21.6638L24.4576 21.7833L24.3255 21.6638C22.8064 20.2894 21.6124 18.5724 20.87 16.6373L20.7702 16.3773ZM29.482 16.3773H34.2965L34.1595 16.6537C32.6289 19.7427 29.6203 21.9921 26.0392 22.5103L25.4536 22.595L25.8729 22.184C27.4773 20.6116 28.712 18.6743 29.4378 16.5092L29.482 16.3773Z" fill="#8D91A1"/>
</g>
<defs>
<clipPath id="clip0_6_3942">
<rect width="48" height="32" fill="white" transform="translate(0.714294)"/>
</clipPath>
</defs>
</svg>
