<svg width="51" height="32" viewBox="0 0 51 32" fill="none" xmlns="http://www.w3.org/2000/svg">
<g id="svgexport-74">
<path id="Vector" d="M40.7405 11.7401L40.7335 11.7306C40.1673 11.0161 39.7312 10.1429 39.5187 9.19237C39.1913 7.73169 39.4069 6.09585 40.0426 4.65383C40.6784 3.21162 41.7258 1.98188 43.041 1.31683L43.0425 1.31607C43.3009 1.18295 43.3806 1.17601 43.4239 1.18716C43.444 1.19235 43.4763 1.20698 43.5305 1.25681C43.5861 1.30801 43.6518 1.38424 43.7409 1.49751C44.6621 2.6596 45.1354 4.20929 45.1591 5.77584C45.1829 7.34247 44.757 8.90681 43.9056 10.0967C43.3222 10.9121 42.5698 11.5165 41.7423 11.9346L41.7286 11.9422C41.5599 12.0429 41.4373 12.1076 41.3402 12.1438C41.2455 12.179 41.1935 12.1799 41.1598 12.1727C41.1261 12.1657 41.0798 12.1442 41.0088 12.075C40.936 12.0039 40.8519 11.897 40.7405 11.7401Z" fill="#8D91A1" stroke="#8D91A1" stroke-width="0.391302"/>
<path id="Vector_2" d="M11.3543 11.5199L11.362 11.5109C11.9757 10.8367 12.4705 9.99539 12.7473 9.06159C13.1738 7.62671 13.0706 5.97996 12.535 4.49785C11.9993 3.01556 11.0383 1.71708 9.77173 0.96368L9.77028 0.962813C9.52161 0.812346 9.44257 0.799971 9.3986 0.808147C9.37819 0.811944 9.34488 0.824328 9.28752 0.870344C9.22858 0.917627 9.1578 0.989181 9.06107 1.09608C8.06265 2.19249 7.48453 3.70621 7.35376 5.26747C7.22299 6.8288 7.54083 8.4186 8.30894 9.66393C8.83534 10.5173 9.54459 11.1717 10.3415 11.6454L10.3548 11.6538C10.5161 11.7658 10.6341 11.8389 10.7284 11.8815C10.8205 11.9232 10.8723 11.9276 10.9065 11.9228C10.9405 11.9181 10.9882 11.8999 11.0637 11.8356C11.1413 11.7696 11.2324 11.6688 11.3543 11.5199Z" fill="#8D91A1" stroke="#8D91A1" stroke-width="0.391302"/>
<path id="Vector_3" d="M40.5157 17.8838L40.516 17.872C40.5186 16.9603 40.7218 16.0057 41.1481 15.1299C41.8023 13.7835 42.9904 12.6386 44.3863 11.9072C45.7823 11.1756 47.3679 10.8668 48.8109 11.1663L48.8125 11.1667C49.0975 11.2236 49.1641 11.2679 49.1911 11.3036C49.2036 11.3202 49.2198 11.3518 49.231 11.4245C49.2425 11.4992 49.2464 11.5998 49.2456 11.7439C49.2417 13.2268 48.6461 14.7337 47.6882 15.9736C46.7304 17.2135 45.4225 18.1715 44.0151 18.5713C43.0506 18.8454 42.0856 18.8491 41.178 18.6603L41.1625 18.6576C40.9679 18.6313 40.8316 18.6055 40.7332 18.5732C40.637 18.5418 40.5959 18.51 40.574 18.4834C40.552 18.4569 40.5292 18.4113 40.5168 18.3129C40.5042 18.2119 40.505 18.076 40.5157 17.8838Z" fill="#8D91A1" stroke="#8D91A1" stroke-width="0.391302"/>
<path id="Vector_4" d="M11.7209 17.8838L11.7206 17.872C11.718 16.9603 11.5148 16.0057 11.0885 15.1299C10.4342 13.7835 9.24618 12.6386 7.85034 11.9072C6.45432 11.1756 4.86874 10.8668 3.42581 11.1663L3.42415 11.1667C3.13913 11.2236 3.07247 11.2679 3.04557 11.3036C3.03308 11.3202 3.01686 11.3518 3.00562 11.4245C2.99408 11.4992 2.9902 11.5998 2.99103 11.7439C2.99493 13.2268 3.59062 14.7337 4.54837 15.9736C5.50616 17.2135 6.81407 18.1715 8.22151 18.5713C9.186 18.8454 10.151 18.8491 11.0587 18.6603L11.0741 18.6576C11.2688 18.6313 11.4051 18.6055 11.5035 18.5732C11.5996 18.5418 11.6407 18.51 11.6627 18.4834C11.6846 18.4569 11.7075 18.4113 11.7198 18.3129C11.7324 18.2119 11.7316 18.076 11.7209 17.8838Z" fill="#8D91A1" stroke="#8D91A1" stroke-width="0.391302"/>
<path id="Vector_5" d="M37.3122 22.9215L37.319 22.9119C37.8268 22.1546 38.5252 21.4728 39.3655 20.9805C40.6566 20.2228 42.28 19.9289 43.8472 20.0942C45.4146 20.2596 46.9054 20.8818 47.94 21.9313L47.9412 21.9325C48.1468 22.138 48.1777 22.2117 48.1804 22.2564C48.1815 22.277 48.1775 22.3124 48.1465 22.3791C48.1148 22.4477 48.0622 22.5335 47.9816 22.653C47.1561 23.8849 45.8248 24.8086 44.3402 25.3093C42.8557 25.81 41.236 25.8818 39.8431 25.4342C38.8886 25.1273 38.0834 24.5953 37.4328 23.9349L37.4214 23.9241C37.2741 23.7942 37.1749 23.6971 37.1109 23.6158C37.0484 23.5364 37.0317 23.4871 37.0281 23.4528C37.0246 23.4185 37.0309 23.3679 37.0752 23.2792C37.1207 23.1881 37.1967 23.0754 37.3122 22.9215Z" fill="#8D91A1" stroke="#8D91A1" stroke-width="0.391302"/>
<path id="Vector_6" d="M14.9245 22.9203L14.9176 22.9107C14.4099 22.1535 13.7115 21.4716 12.8711 20.9793C11.5801 20.2216 9.95658 19.9278 8.3894 20.0931C6.82201 20.2584 5.33129 20.8807 4.29663 21.9302L4.29545 21.9313C4.08983 22.1368 4.0589 22.2106 4.0563 22.2552C4.0551 22.276 4.05916 22.3113 4.09011 22.3779C4.1219 22.4465 4.17443 22.5323 4.25507 22.6519C5.08058 23.8838 6.41186 24.8074 7.89638 25.3081C9.38099 25.8088 11.0006 25.8808 12.3935 25.433C13.3481 25.1262 14.1531 24.5942 14.8039 23.9338L14.8153 23.923C14.9626 23.7931 15.0617 23.696 15.1257 23.6146C15.1882 23.5352 15.2049 23.4859 15.2085 23.4516C15.212 23.4175 15.2057 23.3667 15.1614 23.278C15.1159 23.1871 15.0399 23.0744 14.9245 22.9203Z" fill="#8D91A1" stroke="#8D91A1" stroke-width="0.391302"/>
<path id="Vector_7" d="M30.181 26.2866L30.1911 26.2806C30.9593 25.7896 31.8721 25.4442 32.8393 25.3291C34.3256 25.1512 35.9311 25.5313 37.3014 26.3098C38.6717 27.0885 39.789 28.2551 40.3174 29.6309L40.3181 29.6325C40.4244 29.903 40.4231 29.983 40.4077 30.0249C40.4005 30.0445 40.3826 30.0752 40.3275 30.1239C40.271 30.1741 40.1885 30.2317 40.0669 30.3089C38.8175 31.1077 37.2278 31.4216 35.667 31.2866C34.1061 31.1515 32.5929 30.5696 31.4953 29.6019C30.7433 28.9389 30.2182 28.1293 29.8861 27.2637L29.8799 27.2491C29.7969 27.0712 29.7448 26.9426 29.7188 26.8424C29.6933 26.7446 29.6976 26.6928 29.7081 26.6599C29.7186 26.6272 29.7446 26.5832 29.8207 26.5197C29.8989 26.4544 30.0136 26.3816 30.181 26.2866Z" fill="#8D91A1" stroke="#8D91A1" stroke-width="0.391302"/>
<path id="Vector_8" d="M22.0601 26.2866L22.0499 26.2806C21.2817 25.7896 20.3689 25.4442 19.4018 25.3291C17.9155 25.1512 16.3099 25.5313 14.9398 26.3098C13.5694 27.0885 12.4521 28.2551 11.9237 29.6309L11.923 29.6325C11.8168 29.903 11.8179 29.983 11.8334 30.0249C11.8406 30.0445 11.8585 30.0752 11.9135 30.1239C11.9701 30.1741 12.0526 30.2317 12.1743 30.3089C13.4237 31.1077 15.0133 31.4216 16.5741 31.2866C18.1351 31.1515 19.6481 30.5696 20.7457 29.6019C21.4978 28.9389 22.0229 28.1293 22.355 27.2637L22.3611 27.2491C22.4442 27.0712 22.4962 26.9426 22.5223 26.8424C22.5479 26.7446 22.5434 26.6928 22.5329 26.6599C22.5225 26.6272 22.4965 26.5832 22.4203 26.5197C22.3423 26.4544 22.2275 26.3816 22.0601 26.2866Z" fill="#8D91A1" stroke="#8D91A1" stroke-width="0.391302"/>
<path id="Vector_9" d="M40.1723 6.14008C40.9081 7.92448 41.3139 9.87966 41.3139 11.9296C41.3139 18.8142 36.7364 24.6296 30.4589 26.4979M12.0613 6.14008C11.3255 7.92448 10.9197 9.87966 10.9197 11.9296C10.9197 18.8142 15.4973 24.6296 21.7748 26.4979" stroke="#8D91A1" stroke-width="1.02191" stroke-linecap="round"/>
<path id="Vector_10" fill-rule="evenodd" clip-rule="evenodd" d="M16.997 3.89404C16.2883 4.05417 15.7634 4.67538 15.7634 5.40184V10.1086C15.7634 15.3562 18.5805 20.2646 23.2914 22.5763C24.6997 23.2674 25.8353 23.7697 26.1607 23.7697C26.4861 23.7697 27.6206 23.2676 29.0274 22.5769C33.7367 20.2649 36.5523 15.3575 36.5523 10.1112V5.40184C36.5523 4.67538 36.0273 4.05417 35.3188 3.89404C34.2211 3.64601 32.6014 3.21236 31.3551 2.59311C30.6186 2.22716 29.8822 1.79641 29.192 1.39267C27.9337 0.656726 26.829 0.0105896 26.1578 0.0105896C25.4866 0.0105896 24.3819 0.656727 23.1238 1.39267C22.4335 1.79641 21.697 2.22716 20.9606 2.59311C19.7144 3.21236 18.0946 3.64601 16.997 3.89404ZM29.6969 8.32705C30.0374 7.96535 30.6065 7.9481 30.9682 8.28852C31.3298 8.62895 31.3471 9.19812 31.0067 9.55982L25.2742 15.6507C24.841 16.111 24.1133 16.1219 23.6664 15.6751L20.8831 12.8918C20.5319 12.5404 20.5319 11.9711 20.8831 11.6199C21.2343 11.2686 21.8038 11.2686 22.155 11.6199L24.4438 13.9087L29.6969 8.32705Z" fill="#8D91A1"/>
</g>
</svg>
