<svg width="51" height="32" viewBox="0 0 51 32" fill="none" xmlns="http://www.w3.org/2000/svg">
<g id="svgexport-74">
<path id="Vector" d="M40.0262 11.7401L40.0192 11.7306C39.453 11.0161 39.0169 10.1429 38.8045 9.19237C38.477 7.73169 38.6926 6.09585 39.3283 4.65383C39.9641 3.21162 41.0115 1.98188 42.3267 1.31683L42.3282 1.31607C42.5866 1.18295 42.6663 1.17601 42.7096 1.18716C42.7297 1.19235 42.7621 1.20698 42.8162 1.25681C42.8718 1.30801 42.9375 1.38424 43.0266 1.49751C43.9478 2.6596 44.4211 4.20929 44.4448 5.77584C44.4686 7.34247 44.0427 8.90681 43.1913 10.0967C42.6079 10.9121 41.8555 11.5165 41.028 11.9346L41.0143 11.9422C40.8456 12.0429 40.723 12.1076 40.6259 12.1438C40.5312 12.179 40.4792 12.1799 40.4455 12.1727C40.4118 12.1657 40.3655 12.1442 40.2945 12.075C40.2217 12.0039 40.1376 11.897 40.0262 11.7401Z" fill="#8D91A1" stroke="#8D91A1" stroke-width="0.391302"/>
<path id="Vector_2" d="M10.64 11.5199L10.6477 11.5109C11.2614 10.8367 11.7562 9.99539 12.033 9.06159C12.4595 7.62671 12.3563 5.97996 11.8207 4.49785C11.285 3.01556 10.324 1.71708 9.05745 0.96368L9.05599 0.962813C8.80732 0.812346 8.72828 0.799971 8.68431 0.808147C8.6639 0.811944 8.63059 0.824328 8.57323 0.870344C8.51429 0.917627 8.44351 0.989181 8.34678 1.09608C7.34836 2.19249 6.77025 3.70621 6.63947 5.26747C6.5087 6.8288 6.82654 8.4186 7.59466 9.66393C8.12106 10.5173 8.8303 11.1717 9.62726 11.6454L9.64047 11.6538C9.80185 11.7658 9.91982 11.8389 10.0142 11.8815C10.1063 11.9232 10.158 11.9276 10.1922 11.9228C10.2263 11.9181 10.2739 11.8999 10.3494 11.8356C10.427 11.7696 10.5182 11.6688 10.64 11.5199Z" fill="#8D91A1" stroke="#8D91A1" stroke-width="0.391302"/>
<path id="Vector_3" d="M39.8014 17.8838L39.8017 17.872C39.8043 16.9603 40.0075 16.0057 40.4338 15.1299C41.088 13.7835 42.2761 12.6386 43.672 11.9072C45.068 11.1756 46.6536 10.8668 48.0966 11.1663L48.0982 11.1667C48.3832 11.2236 48.4498 11.2679 48.4768 11.3036C48.4893 11.3202 48.5055 11.3518 48.5167 11.4245C48.5282 11.4992 48.5321 11.5998 48.5313 11.7439C48.5274 13.2268 47.9318 14.7337 46.9739 15.9736C46.0161 17.2135 44.7082 18.1715 43.3008 18.5713C42.3363 18.8454 41.3713 18.8491 40.4637 18.6603L40.4482 18.6576C40.2536 18.6313 40.1173 18.6055 40.0189 18.5732C39.9227 18.5418 39.8816 18.51 39.8597 18.4834C39.8377 18.4569 39.8149 18.4113 39.8025 18.3129C39.7899 18.2119 39.7907 18.076 39.8014 17.8838Z" fill="#8D91A1" stroke="#8D91A1" stroke-width="0.391302"/>
<path id="Vector_4" d="M11.0066 17.8838L11.0063 17.872C11.0037 16.9603 10.8005 16.0057 10.3742 15.1299C9.71995 13.7835 8.53189 12.6386 7.13605 11.9072C5.74003 11.1756 4.15445 10.8668 2.71151 11.1663L2.70986 11.1667C2.42484 11.2236 2.35818 11.2679 2.33127 11.3036C2.31878 11.3202 2.30256 11.3518 2.29133 11.4245C2.27979 11.4992 2.2759 11.5998 2.27674 11.7439C2.28063 13.2268 2.87632 14.7337 3.83407 15.9736C4.79187 17.2135 6.09977 18.1715 7.50722 18.5713C8.47171 18.8454 9.43669 18.8491 10.3444 18.6603L10.3599 18.6576C10.5545 18.6313 10.6908 18.6055 10.7892 18.5732C10.8853 18.5418 10.9264 18.51 10.9484 18.4834C10.9703 18.4569 10.9932 18.4113 11.0055 18.3129C11.0181 18.2119 11.0173 18.076 11.0066 17.8838Z" fill="#8D91A1" stroke="#8D91A1" stroke-width="0.391302"/>
<path id="Vector_5" d="M36.5979 22.9215L36.6047 22.9119C37.1125 22.1546 37.8109 21.4728 38.6512 20.9805C39.9423 20.2228 41.5657 19.9289 43.1329 20.0942C44.7003 20.2596 46.1911 20.8818 47.2257 21.9313L47.2269 21.9325C47.4325 22.138 47.4634 22.2117 47.4661 22.2564C47.4672 22.277 47.4632 22.3124 47.4322 22.3791C47.4005 22.4477 47.3479 22.5335 47.2673 22.653C46.4418 23.8849 45.1105 24.8086 43.6259 25.3093C42.1414 25.81 40.5217 25.8818 39.1288 25.4342C38.1743 25.1273 37.3691 24.5953 36.7185 23.9349L36.7071 23.9241C36.5598 23.7942 36.4606 23.6971 36.3966 23.6158C36.3341 23.5364 36.3174 23.4871 36.3138 23.4528C36.3103 23.4185 36.3166 23.3679 36.3609 23.2792C36.4064 23.1881 36.4824 23.0754 36.5979 22.9215Z" fill="#8D91A1" stroke="#8D91A1" stroke-width="0.391302"/>
<path id="Vector_6" d="M14.2102 22.9203L14.2033 22.9107C13.6957 22.1535 12.9973 21.4716 12.1568 20.9793C10.8658 20.2216 9.24228 19.9278 7.67511 20.0931C6.10771 20.2584 4.61699 20.8807 3.58234 21.9302L3.58115 21.9313C3.37554 22.1368 3.3446 22.2106 3.34201 22.2552C3.34081 22.276 3.34487 22.3113 3.37581 22.3779C3.40761 22.4465 3.46013 22.5323 3.54077 22.6519C4.36628 23.8838 5.69756 24.8074 7.18209 25.3081C8.66669 25.8088 10.2863 25.8808 11.6792 25.433C12.6338 25.1262 13.4389 24.5942 14.0896 23.9338L14.101 23.923C14.2483 23.7931 14.3474 23.696 14.4114 23.6146C14.4739 23.5352 14.4906 23.4859 14.4942 23.4516C14.4977 23.4175 14.4914 23.3667 14.4471 23.278C14.4016 23.1871 14.3256 23.0744 14.2102 22.9203Z" fill="#8D91A1" stroke="#8D91A1" stroke-width="0.391302"/>
<path id="Vector_7" d="M29.4667 26.2866L29.4768 26.2806C30.245 25.7896 31.1578 25.4442 32.125 25.3291C33.6113 25.1512 35.2168 25.5313 36.5871 26.3098C37.9574 27.0885 39.0747 28.2551 39.6031 29.6309L39.6038 29.6325C39.7101 29.903 39.7088 29.983 39.6934 30.0249C39.6862 30.0445 39.6683 30.0752 39.6133 30.1239C39.5567 30.1741 39.4742 30.2317 39.3526 30.3089C38.1032 31.1077 36.5135 31.4216 34.9527 31.2866C33.3918 31.1515 31.8786 30.5696 30.781 29.6019C30.029 28.9389 29.5039 28.1293 29.1718 27.2637L29.1656 27.2491C29.0826 27.0712 29.0305 26.9426 29.0045 26.8424C28.979 26.7446 28.9833 26.6928 28.9938 26.6599C29.0043 26.6272 29.0303 26.5832 29.1064 26.5197C29.1846 26.4544 29.2993 26.3816 29.4667 26.2866Z" fill="#8D91A1" stroke="#8D91A1" stroke-width="0.391302"/>
<path id="Vector_8" d="M21.3458 26.2866L21.3357 26.2806C20.5674 25.7896 19.6546 25.4442 18.6875 25.3291C17.2013 25.1512 15.5957 25.5313 14.2255 26.3098C12.8551 27.0885 11.7378 28.2551 11.2094 29.6309L11.2087 29.6325C11.1025 29.903 11.1037 29.983 11.1191 30.0249C11.1263 30.0445 11.1442 30.0752 11.1992 30.1239C11.2558 30.1741 11.3383 30.2317 11.46 30.3089C12.7094 31.1077 14.299 31.4216 15.8598 31.2866C17.4208 31.1515 18.9338 30.5696 20.0314 29.6019C20.7835 28.9389 21.3086 28.1293 21.6407 27.2637L21.6469 27.2491C21.7299 27.0712 21.7819 26.9426 21.808 26.8424C21.8336 26.7446 21.8291 26.6928 21.8186 26.6599C21.8082 26.6272 21.7822 26.5832 21.7061 26.5197C21.628 26.4544 21.5133 26.3816 21.3458 26.2866Z" fill="#8D91A1" stroke="#8D91A1" stroke-width="0.391302"/>
<path id="Vector_9" d="M39.458 6.14008C40.1938 7.92448 40.5996 9.87966 40.5996 11.9296C40.5996 18.8142 36.022 24.6296 29.7446 26.4979M11.347 6.14008C10.6112 7.92448 10.2054 9.87966 10.2054 11.9296C10.2054 18.8142 14.783 24.6296 21.0604 26.4979" stroke="#8D91A1" stroke-width="1.02191" stroke-linecap="round"/>
<path id="Union" fill-rule="evenodd" clip-rule="evenodd" d="M26.3305 1.10822C26.0239 0.963927 25.6689 0.963928 25.3623 1.10822L16.209 5.41567C15.9342 5.54494 16.0264 5.95707 16.33 5.95707H35.3628C35.6665 5.95707 35.7586 5.54494 35.4838 5.41567L26.3305 1.10822ZM33.178 6.59113C33.3349 6.59113 33.4622 6.71839 33.4622 6.87533V15.9219C33.4622 16.0789 33.3349 16.2062 33.178 16.2062H31.844C31.687 16.2062 31.5598 16.0789 31.5598 15.9219V9.13021C31.5598 8.42924 30.9915 7.86104 30.2906 7.86104C29.5896 7.86104 29.0214 8.42924 29.0214 9.13021V15.9219C29.0214 16.0789 28.8942 16.2062 28.7372 16.2062H27.4008C27.2439 16.2062 27.1166 16.0789 27.1166 15.9219V9.13021C27.1166 8.42924 26.5483 7.86104 25.8474 7.86104C25.1464 7.86104 24.5782 8.42924 24.5782 9.13021V15.9219C24.5782 16.0789 24.451 16.2062 24.294 16.2062H22.9589C22.8019 16.2062 22.6747 16.0789 22.6747 15.9219V9.13C22.6747 8.42903 22.1065 7.86084 21.4055 7.86084C20.7046 7.86084 20.1364 8.42903 20.1364 9.13V15.9219C20.1364 16.0789 20.0091 16.2062 19.8521 16.2062H18.5164C18.3594 16.2062 18.2321 16.0789 18.2321 15.9219V6.87533C18.2321 6.71839 18.3594 6.59113 18.5164 6.59113H33.178ZM34.4456 17H17.2456C17.0886 17 16.9614 17.1273 16.9614 17.2842V17.985C16.9614 18.1419 17.0886 18.2692 17.2456 18.2692H34.4456C34.6025 18.2692 34.7298 18.1419 34.7298 17.985V17.2842C34.7298 17.1273 34.6025 17 34.4456 17ZM15.9774 18.9036H35.7157C35.8727 18.9036 36 19.0308 36 19.1878V19.8885C36 20.0455 35.8727 20.1727 35.7157 20.1727H15.9774C15.8204 20.1727 15.6932 20.0455 15.6932 19.8885V19.1878C15.6932 19.0308 15.8204 18.9036 15.9774 18.9036Z" fill="#8D91A1"/>
</g>
</svg>
