<svg width="106" height="24" viewBox="0 0 106 24" fill="none" xmlns="http://www.w3.org/2000/svg">
<g clip-path="url(#clip0_22_417)">
<path d="M25.9494 5.45438H20.3011V14.3184H5.42114V20H19.9261L25.9494 13.9786V5.45438Z" fill="white"/>
<path d="M20.4876 0H6.02143L0 6.02143V14.5493H5.64647V5.68157H20.4876V0Z" fill="white"/>
</g>
<path d="M35.4795 17V4.58H40.2495C43.4895 4.58 45.1095 6.206 45.1095 9.458V12.122C45.1095 15.374 43.4895 17 40.2495 17H35.4795ZM37.6755 15.002H40.3755C42.0675 15.002 42.9135 14.156 42.9135 12.464V9.116C42.9135 7.424 42.0675 6.578 40.3755 6.578H37.6755V15.002ZM47.5677 5.912V3.77H49.7817V5.912H47.5677ZM47.6217 17V7.55H49.7277V17H47.6217ZM52.2226 14.156V10.394C52.2226 8.498 53.1706 7.55 55.0666 7.55H60.2506V17.756C60.2506 19.652 59.3026 20.6 57.4066 20.6H53.9686L53.0146 19.898V18.764H57.3166C57.8686 18.764 58.1446 18.488 58.1446 17.936V17H55.0666C53.1706 17 52.2226 16.052 52.2226 14.156ZM54.3286 14.336C54.3286 14.888 54.6046 15.164 55.1566 15.164H58.1446V9.386H55.1566C54.6046 9.386 54.3286 9.662 54.3286 10.214V14.336ZM61.5376 5.012L61.8256 4.58H63.7336L66.8116 15.002H67.1536L70.2316 4.58H72.1576L72.4276 5.012L68.7556 17H65.1916L61.5376 5.012ZM75.7313 17C73.8353 17 72.8873 16.064 72.8873 14.192C72.8873 12.32 73.8353 11.384 75.7313 11.384H78.5033V10.214C78.5033 9.662 78.2273 9.386 77.6753 9.386H73.8593V8.252L74.7953 7.55H77.7833C79.6673 7.55 80.6093 8.498 80.6093 10.394V17H75.7313ZM74.9933 14.336C74.9933 14.888 75.2693 15.164 75.8213 15.164H78.5033V13.022H75.8213C75.2693 13.022 74.9933 13.292 74.9933 13.832V14.336ZM83.163 14.156V7.55H85.269V14.336C85.269 14.888 85.545 15.164 86.097 15.164H89.067V7.55H91.173V17H86.007C84.111 17 83.163 16.052 83.163 14.156ZM93.7978 13.868V3.68H95.9038V14.084C95.9038 14.864 96.2998 15.284 97.0918 15.344V17.162C94.8958 17.162 93.7978 16.064 93.7978 13.868ZM99.0536 14.156V4.58H101.16V7.55H104.382V9.386H101.16V14.336C101.16 14.888 101.436 15.164 101.988 15.164H104.562V16.298L103.608 17H101.898C100.002 17 99.0536 16.052 99.0536 14.156Z" fill="white"/>
<defs>
<clipPath id="clip0_22_417">
<rect width="25.9494" height="20" fill="white"/>
</clipPath>
</defs>
</svg>
