<svg width="120" height="24" viewBox="0 0 120 24" fill="none" xmlns="http://www.w3.org/2000/svg">
<g clip-path="url(#clip0_11_1411)">
<path d="M31.1393 6.54541H24.3613V17.1823H6.50537V24.0002H23.9114L31.1393 16.7744V6.54541Z" fill="#0667EA"/>
<path d="M24.5851 0H7.22571L0 7.22571V17.4592H6.77577V6.81788H24.5851V0Z" fill="#0667EA"/>
</g>
<path d="M40.8393 18V4.2H46.1393C49.7393 4.2 51.5393 6.00667 51.5393 9.62V12.58C51.5393 16.1933 49.7393 18 46.1393 18H40.8393ZM43.2793 15.78H46.2793C48.1593 15.78 49.0993 14.84 49.0993 12.96V9.24C49.0993 7.36 48.1593 6.42 46.2793 6.42H43.2793V15.78ZM54.2707 5.68V3.3H56.7307V5.68H54.2707ZM54.3307 18V7.5H56.6707V18H54.3307ZM59.4427 14.84V10.66C59.4427 8.55333 60.4961 7.5 62.6027 7.5H68.3627V18.84C68.3627 20.9467 67.3094 22 65.2027 22H61.3827L60.3227 21.22V19.96H65.1027C65.7161 19.96 66.0227 19.6533 66.0227 19.04V18H62.6027C60.4961 18 59.4427 16.9467 59.4427 14.84ZM61.7827 15.04C61.7827 15.6533 62.0894 15.96 62.7027 15.96H66.0227V9.54H62.7027C62.0894 9.54 61.7827 9.84667 61.7827 10.46V15.04ZM69.7927 4.68L70.1127 4.2H72.2327L75.6527 15.78H76.0327L79.4527 4.2H81.5927L81.8927 4.68L77.8127 18H73.8527L69.7927 4.68ZM85.5635 18C83.4568 18 82.4035 16.96 82.4035 14.88C82.4035 12.8 83.4568 11.76 85.5635 11.76H88.6435V10.46C88.6435 9.84667 88.3368 9.54 87.7235 9.54H83.4835V8.28L84.5235 7.5H87.8435C89.9368 7.5 90.9835 8.55333 90.9835 10.66V18H85.5635ZM84.7435 15.04C84.7435 15.6533 85.0502 15.96 85.6635 15.96H88.6435V13.58H85.6635C85.0502 13.58 84.7435 13.88 84.7435 14.48V15.04ZM93.821 14.84V7.5H96.161V15.04C96.161 15.6533 96.4677 15.96 97.081 15.96H100.381V7.5H102.721V18H96.981C94.8743 18 93.821 16.9467 93.821 14.84ZM105.637 14.52V3.2H107.977V14.76C107.977 15.6267 108.417 16.0933 109.297 16.16V18.18C106.857 18.18 105.637 16.96 105.637 14.52ZM111.477 14.84V4.2H113.817V7.5H117.397V9.54H113.817V15.04C113.817 15.6533 114.124 15.96 114.737 15.96H117.597V17.22L116.537 18H114.637C112.531 18 111.477 16.9467 111.477 14.84Z" fill="black"/>
<defs>
<clipPath id="clip0_11_1411">
<rect width="31.1393" height="24" fill="white"/>
</clipPath>
</defs>
</svg>
