<svg width="55" height="32" viewBox="0 0 55 32" fill="none" xmlns="http://www.w3.org/2000/svg">
<g clip-path="url(#clip0_1_6200)">
<mask id="mask0_1_6200" style="mask-type:luminance" maskUnits="userSpaceOnUse" x="0" y="0" width="55" height="32">
<path d="M54.3078 0H0.857178V32H54.3078V0Z" fill="white"/>
</mask>
<g mask="url(#mask0_1_6200)">
<path d="M16.0488 11.6747C16.0488 12.3252 16.1191 12.8527 16.2422 13.2395C16.3828 13.6263 16.5587 14.0483 16.8048 14.5054C16.8927 14.6461 16.9279 14.7868 16.9279 14.9098C16.9279 15.0857 16.8224 15.2615 16.5938 15.4373L15.4861 16.1758C15.3279 16.2813 15.1697 16.334 15.029 16.334C14.8532 16.334 14.6774 16.2461 14.5015 16.0879C14.2554 15.8241 14.0444 15.5428 13.8686 15.2615C13.6927 14.9626 13.5169 14.6285 13.3235 14.2241C11.9521 15.8417 10.229 16.6505 8.15426 16.6505C6.67733 16.6505 5.49931 16.2285 4.63777 15.3846C3.77623 14.5406 3.33667 13.4153 3.33667 12.0087C3.33667 10.5142 3.86414 9.30105 4.93667 8.38677C6.0092 7.47248 7.43338 7.01534 9.24436 7.01534C9.84217 7.01534 10.4576 7.06808 11.1081 7.156C11.7587 7.24391 12.4268 7.38457 13.1301 7.54281V6.25929C13.1301 4.92303 12.8488 3.99116 12.3037 3.44611C11.7411 2.90105 10.7916 2.63732 9.43777 2.63732C8.82239 2.63732 8.18942 2.70764 7.53887 2.86589C6.88832 3.02413 6.25535 3.21754 5.63997 3.46369C5.35865 3.58677 5.14766 3.6571 5.02458 3.69226C4.90151 3.72743 4.8136 3.74501 4.74327 3.74501C4.49711 3.74501 4.37403 3.56918 4.37403 3.19995V2.33841C4.37403 2.0571 4.4092 1.84611 4.49711 1.72303C4.58502 1.59995 4.74327 1.47688 4.98942 1.3538C5.6048 1.03732 6.34327 0.773579 7.2048 0.56259C8.06634 0.334019 8.98063 0.228524 9.94766 0.228524C12.04 0.228524 13.5697 0.703249 14.5543 1.6527C15.5213 2.60215 16.0136 4.04391 16.0136 5.97797V11.6747H16.0488ZM8.9103 14.3472C9.49052 14.3472 10.0883 14.2417 10.7213 14.0307C11.3543 13.8197 11.9169 13.4329 12.3916 12.9054C12.673 12.5714 12.8839 12.2022 12.9894 11.7802C13.0949 11.3582 13.1653 10.8483 13.1653 10.2505V9.51204C12.6554 9.38896 12.1103 9.28347 11.5477 9.21314C10.985 9.14281 10.44 9.10764 9.89492 9.10764C8.71689 9.10764 7.85535 9.33622 7.27513 9.81094C6.69491 10.2857 6.4136 10.9538 6.4136 11.8329C6.4136 12.6593 6.62458 13.2747 7.06414 13.6967C7.48612 14.1362 8.10151 14.3472 8.9103 14.3472ZM23.029 16.2461C22.7125 16.2461 22.5015 16.1934 22.3609 16.0703C22.2202 15.9648 22.0971 15.7186 21.9916 15.3846L17.8598 1.79336C17.7543 1.44171 17.7015 1.21314 17.7015 1.09006C17.7015 0.808744 17.8422 0.650502 18.1235 0.650502H19.8466C20.1807 0.650502 20.4092 0.703249 20.5323 0.826326C20.673 0.931821 20.7785 1.17797 20.8839 1.51204L23.8378 13.1516L26.5807 1.51204C26.6686 1.16039 26.7741 0.931821 26.9147 0.826326C27.0554 0.720832 27.3015 0.650502 27.618 0.650502H29.0246C29.3587 0.650502 29.5872 0.703249 29.7279 0.826326C29.8686 0.931821 29.9916 1.17797 30.062 1.51204L32.84 13.2923L35.8817 1.51204C35.9872 1.16039 36.1103 0.931821 36.2334 0.826326C36.3741 0.720832 36.6026 0.650502 36.9191 0.650502H38.5543C38.8356 0.650502 38.9938 0.791162 38.9938 1.09006C38.9938 1.17797 38.9763 1.26589 38.9587 1.37138C38.9411 1.47688 38.9059 1.61754 38.8356 1.81094L34.5982 15.4021C34.4927 15.7538 34.3697 15.9824 34.229 16.0879C34.0883 16.1934 33.8598 16.2637 33.5609 16.2637H32.0488C31.7147 16.2637 31.4861 16.2109 31.3455 16.0879C31.2048 15.9648 31.0817 15.7362 31.0114 15.3846L28.2861 4.04391L25.5785 15.367C25.4905 15.7186 25.385 15.9472 25.2444 16.0703C25.1037 16.1934 24.8576 16.2461 24.5411 16.2461H23.029ZM45.6224 16.7208C44.7081 16.7208 43.7938 16.6153 42.9147 16.4043C42.0356 16.1934 41.3499 15.9648 40.8927 15.7011C40.6114 15.5428 40.418 15.367 40.3477 15.2087C40.2774 15.0505 40.2422 14.8747 40.2422 14.7164V13.8197C40.2422 13.4505 40.3828 13.2747 40.6466 13.2747C40.7521 13.2747 40.8576 13.2923 40.9631 13.3274C41.0686 13.3626 41.2268 13.4329 41.4026 13.5032C42.0004 13.767 42.651 13.978 43.3367 14.1186C44.04 14.2593 44.7257 14.3296 45.429 14.3296C46.5367 14.3296 47.3982 14.1362 47.996 13.7494C48.5938 13.3626 48.9103 12.8 48.9103 12.0791C48.9103 11.5868 48.7521 11.1824 48.4356 10.8483C48.1191 10.5142 47.5213 10.2153 46.6598 9.93402L44.1103 9.14281C42.8268 8.73841 41.8774 8.14061 41.2971 7.3494C40.7169 6.57578 40.418 5.71424 40.418 4.79995C40.418 4.06149 40.5763 3.41094 40.8927 2.8483C41.2092 2.28567 41.6312 1.79336 42.1587 1.40655C42.6861 1.00215 43.2839 0.703249 43.9872 0.49226C44.6905 0.281271 45.429 0.193359 46.2026 0.193359C46.5894 0.193359 46.9938 0.210942 47.3807 0.263689C47.785 0.316436 48.1543 0.386766 48.5235 0.457096C48.8752 0.545008 49.2092 0.63292 49.5257 0.738414C49.8422 0.843909 50.0883 0.949403 50.2642 1.0549C50.5103 1.19556 50.6861 1.33622 50.7916 1.49446C50.8971 1.63512 50.9499 1.82852 50.9499 2.07468V2.90105C50.9499 3.27028 50.8092 3.46369 50.5455 3.46369C50.4048 3.46369 50.1763 3.39336 49.8774 3.2527C48.8752 2.79556 47.7499 2.56699 46.5015 2.56699C45.4993 2.56699 44.7081 2.72523 44.1631 3.05929C43.618 3.39336 43.3367 3.90325 43.3367 4.62413C43.3367 5.11644 43.5125 5.53841 43.8642 5.87248C44.2158 6.20655 44.8664 6.54061 45.7982 6.83951L48.2949 7.63072C49.5609 8.03512 50.4752 8.59775 51.0202 9.31863C51.5653 10.0395 51.829 10.8659 51.829 11.7802C51.829 12.5362 51.6708 13.2219 51.3719 13.8197C51.0554 14.4175 50.6334 14.945 50.0883 15.367C49.5433 15.8065 48.8927 16.123 48.1367 16.3516C47.3455 16.5978 46.5191 16.7208 45.6224 16.7208Z" fill="white"/>
<path fill-rule="evenodd" clip-rule="evenodd" d="M48.9453 25.266C43.1607 29.5385 34.7563 31.8066 27.5299 31.8066C17.4024 31.8066 8.27715 28.0616 1.38484 21.8374C0.83978 21.3451 1.33209 20.677 1.98264 21.0638C9.43759 25.389 18.6332 28.0088 28.1453 28.0088C34.5629 28.0088 41.6134 26.6726 48.1013 23.9297C49.0684 23.4901 49.8948 24.5627 48.9453 25.266Z" fill="white"/>
<path fill-rule="evenodd" clip-rule="evenodd" d="M51.354 22.523C50.6155 21.5735 46.4661 22.0659 44.5848 22.2944C44.0221 22.3648 43.9342 21.8724 44.4441 21.5032C47.7496 19.1823 53.1826 19.8505 53.8155 20.6241C54.4485 21.4153 53.6397 26.8483 50.5452 29.4505C50.0705 29.8549 49.6133 29.6439 49.8243 29.1164C50.5276 27.3757 52.0925 23.4549 51.354 22.523Z" fill="white"/>
</g>
</g>
<defs>
<clipPath id="clip0_1_6200">
<rect width="54" height="32" fill="white" transform="translate(0.857178)"/>
</clipPath>
</defs>
</svg>
