<svg width="87" height="32" viewBox="0 0 87 32" fill="none" xmlns="http://www.w3.org/2000/svg">
<g clip-path="url(#clip0_1_6188)">
<mask id="mask0_1_6188" style="mask-type:luminance" maskUnits="userSpaceOnUse" x="0" y="0" width="87" height="32">
<path d="M86.4286 0H0.428589V32H86.4286V0Z" fill="white"/>
</mask>
<g mask="url(#mask0_1_6188)">
<path d="M4.32406 8.71862L2.37633 10.6825L0.428589 8.71862L2.37633 6.75477L4.32406 8.71862ZM9.07568 3.92769L12.4147 7.31587L14.3624 5.35202L11.0234 1.96385L9.07568 0L7.12794 1.96385L3.76756 5.35202L5.7153 7.31587L9.07568 3.92769ZM15.775 6.75477L13.8273 8.71862L15.775 10.6825L17.7228 8.71862L15.775 6.75477ZM9.07568 13.488L5.7367 10.1214L3.76756 12.0852L7.10654 15.4518L9.05427 17.4157L11.002 15.4518L14.3624 12.0852L12.4147 10.1214L9.07568 13.488ZM9.07568 10.6825L11.0234 8.71862L9.07568 6.75477L7.12794 8.71862L9.07568 10.6825ZM29.6874 10.8767V10.8551C29.6874 9.58185 29.0025 8.93442 27.9109 8.50281C28.5958 8.11436 29.1523 7.5101 29.1523 6.43106V6.40948C29.1523 4.89883 27.9537 3.92769 26.0274 3.92769H21.6182V13.488H26.1344C28.2748 13.488 29.6874 12.6247 29.6874 10.8767ZM27.0762 6.79793C27.0762 7.5101 26.4983 7.81223 25.5779 7.81223H23.6516V5.78364H25.7064C26.5839 5.78364 27.0762 6.12893 27.0762 6.77635V6.79793ZM27.6113 10.6177C27.6113 11.3299 27.0548 11.6536 26.1344 11.6536H23.6516V9.56027H26.0702C27.1404 9.56027 27.6113 9.94872 27.6113 10.5961V10.6177ZM34.0538 13.488V3.92769H31.9776V13.488H34.0538ZM45.2693 13.488V3.92769H43.2146V9.81923L38.7626 3.92769H36.8363V13.488H38.891V7.42377L43.4928 13.5095H45.2693V13.488ZM56.8273 13.488L52.7606 3.86295H50.8343L46.7676 13.488H48.8865L49.7641 11.3515H53.7666L54.6441 13.488H56.8273ZM53.0389 9.49552H50.5132L51.776 6.3879L53.0389 9.49552ZM66.7586 13.488V3.92769H64.7039V9.81923L60.2519 3.92769H58.3256V13.488H60.3803V7.42377L64.9821 13.5095H66.7586V13.488ZM77.5461 11.9557L76.219 10.5961C75.4699 11.2867 74.8064 11.7183 73.7362 11.7183C72.1095 11.7183 70.9965 10.3588 70.9965 8.71862V8.69704C70.9965 7.0569 72.1523 5.71889 73.7362 5.71889C74.678 5.71889 75.4271 6.12893 76.1548 6.79793L77.4819 5.24412C76.6043 4.35931 75.5341 3.77663 73.7362 3.77663C70.8253 3.77663 68.792 5.99944 68.792 8.71862V8.7402C68.792 11.481 70.8681 13.6606 73.6506 13.6606C75.4699 13.6606 76.5615 13.0132 77.5461 11.9557ZM86.4286 13.488V11.6104H81.2917V9.60343H85.7651V7.7259H81.2917V5.78364H86.3644V3.90611H79.2156V13.4664H86.4286V13.488Z" fill="white"/>
<path d="M32.5358 22.2568C32.5358 19.336 30.4641 17.4568 27.1855 17.4568H21.6339V31.7548H24.108V27.159H26.9039C30.0015 27.159 32.5358 25.4841 32.5358 22.2568ZM30.0216 22.3181C30.0216 23.8501 28.8549 24.8918 26.9843 24.8918H24.108V19.7445H26.9843C28.8348 19.7445 30.0216 20.6228 30.0216 22.3181Z" fill="white"/>
<path d="M49.1698 24.5854C49.1698 20.5411 46.1526 17.2117 41.8281 17.2117C37.5035 17.2117 34.4462 20.5819 34.4462 24.6262C34.4462 28.6705 37.4633 32 41.7879 32C46.1124 32 49.1698 28.6297 49.1698 24.5854ZM46.575 24.6262C46.575 27.4246 44.624 29.6918 41.8281 29.6918C39.0322 29.6918 37.0409 27.3837 37.0409 24.5854C37.0409 21.7871 38.992 19.5198 41.7879 19.5198C44.5837 19.5198 46.575 21.8279 46.575 24.6262Z" fill="white"/>
<path d="M66.2589 24.5854C66.2589 20.5411 63.2418 17.2117 58.9172 17.2117C54.5926 17.2117 51.5353 20.5819 51.5353 24.6262C51.5353 28.6705 54.5524 32 58.877 32C63.2015 32 66.2589 28.6297 66.2589 24.5854ZM63.6642 24.6262C63.6642 27.4246 61.7131 29.6918 58.9172 29.6918C56.1213 29.6918 54.13 27.3837 54.13 24.5854C54.13 21.7871 56.0811 19.5198 58.877 19.5198C61.6728 19.5198 63.6642 21.8279 63.6642 24.6262Z" fill="white"/>
<path d="M69.2482 31.7548H79.1243V29.4672H71.7223V17.4568H69.2482V31.7548Z" fill="white"/>
</g>
</g>
<defs>
<clipPath id="clip0_1_6188">
<rect width="86" height="32" fill="white" transform="translate(0.428589)"/>
</clipPath>
</defs>
</svg>
