<svg width="160" height="32" viewBox="0 0 160 32" fill="none" xmlns="http://www.w3.org/2000/svg">
<g clip-path="url(#clip0_1_6184)">
<path d="M7.23095 16L3.61391 19.6139L0 16L3.61391 12.3861L7.23095 16ZM16 7.2247L22.193 13.4209L25.807 9.80696L16 0L6.19304 9.80696L9.80696 13.4209L16 7.2247ZM28.3892 12.3861L24.7753 16L28.3892 19.6139L32 16L28.3892 12.3861ZM16 24.7753L9.80696 18.5823L6.19304 22.193L16 32L25.807 22.193L22.193 18.5823L16 24.7753ZM16 19.6139L19.6139 16L16 12.3861L12.3861 16L16 19.6139ZM54.1399 19.9609V19.9109C54.1399 17.5537 52.8894 16.3751 50.8542 15.5998C52.1047 14.8964 53.1614 13.7929 53.1614 11.814V11.764C53.1614 9.00664 50.9543 7.2247 47.3685 7.2247H39.2278V24.7753H47.5748C51.5358 24.7753 54.1462 23.1716 54.1462 19.9609H54.1399ZM49.3255 12.458C49.3255 13.7616 48.247 14.315 46.5432 14.315H42.9887V10.6104H46.7995C48.4283 10.6104 49.3318 11.2606 49.3318 12.4142L49.3255 12.458ZM50.304 19.4795C50.304 20.7831 49.2755 21.3834 47.5686 21.3834H42.9887V17.5287H47.4498C49.4318 17.5287 50.3103 18.2571 50.3103 19.4357L50.304 19.4795ZM62.2524 24.7753V7.2247H58.3791V24.7753H62.2524ZM83.0074 24.7753V7.2247H79.1841V18.032L70.9621 7.2247H67.4013V24.7753H71.2122V13.6178L79.7093 24.7753H83.0074ZM104.394 24.7753L96.8597 7.09965H93.2989L85.7804 24.7753H89.7163L91.3263 20.8394H98.7479L100.352 24.7753H104.394ZM97.3755 17.4287H92.6987L95.0309 11.739L97.3755 17.4287ZM122.798 24.7753V7.2247H118.975V18.032L110.75 7.2247H107.192V24.7753H111V13.6178L119.5 24.7753H122.798ZM142.728 21.9429L140.274 19.4607C138.895 20.7112 137.666 21.5147 135.659 21.5147C132.652 21.5147 130.57 19.0137 130.57 16V15.95C130.57 12.9426 132.702 10.4853 135.659 10.4853C137.413 10.4853 138.785 11.2356 140.149 12.4642L142.596 9.63189C140.968 8.02814 138.989 6.92458 135.678 6.92458C130.288 6.92458 126.528 11.0105 126.528 15.9906V16.0406C126.528 21.0801 130.363 25.066 135.528 25.066C138.907 25.0754 140.911 23.8718 142.715 21.9429H142.728ZM159.203 24.7753V21.3365H149.662V17.6444H157.937V14.2055H149.662V10.6604H159.065V7.22157H145.826V24.7722L159.203 24.7753Z" fill="white"/>
</g>
<defs>
<clipPath id="clip0_1_6184">
<rect width="160" height="32" fill="white"/>
</clipPath>
</defs>
</svg>
