<svg width="123" height="32" viewBox="0 0 123 32" fill="none" xmlns="http://www.w3.org/2000/svg">
<g clip-path="url(#clip0_1_6210)">
<path d="M0.285645 9.74957V21.842C0.285645 21.842 0.433425 22.8531 1.67507 22.195C3.01239 21.4872 4.67901 20.5511 4.67901 20.5511C4.67901 20.5511 5.14299 20.3355 5.14299 20.0724V11.6819C5.14299 11.6819 5.12134 11.577 4.91868 11.4456C4.73238 11.3251 1.5424 9.48503 1.5424 9.48503C1.5424 9.48503 0.77984 9.04929 0.285645 9.74957Z" fill="white"/>
<path d="M13.0606 0.012017L2.23972 6.16588C2.23972 6.16588 1.40843 6.80686 2.61181 7.52506C3.90785 8.29841 5.56993 9.2345 5.56993 9.2345C5.56993 9.2345 5.99339 9.5177 6.22903 9.38306C6.99385 8.94806 13.7373 5.11254 13.7373 5.11254C13.7373 5.11254 13.8201 5.04174 13.8375 4.8025C13.8538 4.58314 13.9203 0.941392 13.9203 0.941392C13.9203 0.941392 13.9241 -0.124123 13.0606 0.012017Z" fill="white"/>
<path d="M16.8422 0.012017L27.6623 6.16588C27.6623 6.16588 28.4956 6.80686 27.291 7.52506C25.9964 8.29841 24.3328 9.2345 24.3328 9.2345C24.3328 9.2345 23.9094 9.5177 23.6753 9.38306C22.9089 8.94806 16.1655 5.11254 16.1655 5.11254C16.1655 5.11254 16.0826 5.04174 16.0645 4.8025C16.0489 4.58314 15.9824 0.941392 15.9824 0.941392C15.9824 0.941392 15.9786 -0.124123 16.8422 0.012017Z" fill="white"/>
<path d="M13.0606 31.6246L2.23972 25.4693C2.23972 25.4693 1.40843 24.8291 2.61181 24.1116C3.90785 23.3375 5.56993 22.4022 5.56993 22.4022C5.56993 22.4022 5.99339 22.1189 6.22903 22.2536C6.99385 22.6879 13.7373 26.5236 13.7373 26.5236C13.7373 26.5236 13.8201 26.5941 13.8375 26.8341C13.8538 27.0535 13.9203 30.6953 13.9203 30.6953C13.9203 30.6953 13.9241 31.76 13.0606 31.6246Z" fill="white"/>
<path d="M16.4375 26.7882C16.4333 26.8068 16.429 26.8332 16.4264 26.8674C16.4154 27.0205 16.3719 29.2484 16.3451 30.7084C16.3462 30.826 16.3917 31.1194 16.5279 31.2334C16.5601 31.26 16.614 31.2915 16.7271 31.2858L27.4528 25.1838C27.4878 25.1508 27.5908 25.0425 27.5822 24.9242C27.5717 24.7804 27.3977 24.598 27.1054 24.4237C25.8293 23.661 24.1717 22.7283 24.1551 22.7191L24.1311 22.7045C24.0367 22.6424 23.8975 22.5845 23.8369 22.5808C23.0325 23.0369 17.2323 26.3361 16.4375 26.7882ZM16.6981 32C16.3942 32 16.1853 31.8833 16.0566 31.7744C15.6319 31.4155 15.6219 30.773 15.6221 30.701C15.6289 30.3222 15.689 27.0381 15.7052 26.8155C15.7306 26.4777 15.8573 26.3227 15.9303 26.2603L15.9862 26.2213C15.9862 26.2213 22.7299 22.3853 23.4963 21.951C23.8837 21.7282 24.3668 22.002 24.5246 22.1056C24.6744 22.1898 26.2517 23.0789 27.4795 23.813C28.0026 24.1246 28.2804 24.4853 28.3043 24.885C28.3349 25.397 27.9319 25.7222 27.8858 25.7577L27.8443 25.785L16.966 31.9735L16.9 31.9839C16.8285 31.995 16.7613 32 16.6981 32Z" fill="white"/>
<path d="M25.1441 20.0522C25.1824 20.1052 25.3123 20.1948 25.4006 20.2358L25.4258 20.2488C25.4425 20.2582 27.1013 21.1908 28.4212 21.8881C28.7281 22.0509 28.9821 22.107 29.1178 22.0417C29.2221 21.9917 29.2654 21.8613 29.2782 21.8126V9.88125C29.0093 9.59481 28.6674 9.7456 28.5625 9.80299C27.2876 10.5383 25.3369 11.6667 25.2063 11.7517C25.1786 11.7693 25.1585 11.7847 25.1441 11.7971V20.0522ZM28.9832 22.7823C28.7153 22.7823 28.4129 22.6938 28.0796 22.5172C26.8095 21.8462 25.229 20.9595 25.0789 20.8753C24.9075 20.7933 24.4209 20.522 24.4209 20.0801L24.4279 11.62C24.4467 11.5259 24.5218 11.3403 24.81 11.1545C24.9978 11.0327 27.8741 9.37319 28.2015 9.18442C28.566 8.97597 29.396 8.78592 29.9368 9.55331L30.0015 9.64523L29.998 21.9003C29.9899 21.9557 29.9056 22.4488 29.4466 22.6774C29.3061 22.7475 29.1513 22.7823 28.9832 22.7823Z" fill="white"/>
<path d="M60.3532 17.1518H57.422C56.0832 17.1518 55.3438 17.7695 55.3438 18.8094C55.3438 19.8217 56.0255 20.4945 57.4779 20.4945C58.5038 20.4945 59.1576 20.41 59.8114 19.7924C60.2114 19.427 60.3532 18.837 60.3532 17.9369V17.1518ZM60.4388 23.3318V22.0658C59.4408 23.0506 58.5038 23.4732 56.7962 23.4732C55.1167 23.4732 53.8914 23.0506 53.0105 22.1813C52.2117 21.3655 51.7837 20.1857 51.7837 18.8924C51.7837 16.5621 53.4073 14.6511 56.8538 14.6511H60.3532V13.9215C60.3532 12.3191 59.5562 11.6173 57.5932 11.6173C56.1673 11.6173 55.5152 11.9552 54.7461 12.8262L52.3814 10.5513C53.8355 8.97675 55.2582 8.52661 57.7365 8.52661C61.8912 8.52661 64.055 10.2701 64.055 13.6957V23.3318H60.4388Z" fill="white"/>
<path d="M75.2475 23.33V14.4822C75.2475 12.4865 73.968 11.8138 72.8002 11.8138C71.6324 11.8138 70.3235 12.4865 70.3235 14.4822V23.33H66.6216V8.69403H70.2379V10.0428C71.2064 9.03015 72.5715 8.52661 73.94 8.52661C75.4187 8.52661 76.6139 9.00433 77.4406 9.81843C78.6358 10.9983 78.9488 12.3746 78.9488 13.9752V23.33H75.2475Z" fill="white"/>
<path d="M89.0254 17.1518H86.0939C84.7549 17.1518 84.0172 17.7695 84.0172 18.8094C84.0172 19.8217 84.6974 20.4945 86.1501 20.4945C87.1754 20.4945 87.8316 20.41 88.485 19.7924C88.8837 19.427 89.0254 18.837 89.0254 17.9369V17.1518ZM89.1111 23.3318V22.0658C88.1145 23.0506 87.1754 23.4732 85.4666 23.4732C83.7885 23.4732 82.5631 23.0506 81.681 22.1813C80.8837 21.3655 80.457 20.1857 80.457 18.8924C80.457 16.5621 82.0789 14.6511 85.5241 14.6511H89.0254V13.9215C89.0254 12.3191 88.2296 11.6173 86.2638 11.6173C84.8405 11.6173 84.1871 11.9552 83.4179 12.8262L81.0549 10.5513C82.5077 8.97675 83.9303 8.52661 86.407 8.52661C90.5631 8.52661 92.7268 10.2701 92.7268 13.6957V23.3318H89.1111Z" fill="white"/>
<path d="M102.808 17.1518H99.8758C98.5367 17.1518 97.7977 17.7695 97.7977 18.8094C97.7977 19.8217 98.4792 20.4945 99.9319 20.4945C100.958 20.4945 101.612 20.41 102.266 19.7924C102.666 19.427 102.808 18.837 102.808 17.9369V17.1518ZM102.893 23.3318V22.0658C101.897 23.0506 100.958 23.4732 99.2498 23.4732C97.5703 23.4732 96.347 23.0506 95.4642 22.1813C94.6655 21.3655 94.2388 20.1857 94.2388 18.8924C94.2388 16.5621 95.8628 14.6511 99.3073 14.6511H102.808V13.9215C102.808 12.3191 102.01 11.6173 100.047 11.6173C98.621 11.6173 97.9689 11.9552 97.2011 12.8262L94.8354 10.5513C96.2895 8.97675 97.7135 8.52661 100.19 8.52661C104.349 8.52661 106.509 10.2701 106.509 13.6957V23.3318H102.893Z" fill="white"/>
<path d="M117.698 23.33V14.4822C117.698 12.4865 116.418 11.8138 115.251 11.8138C114.082 11.8138 112.774 12.4865 112.774 14.4822V23.33H109.073V8.69403H112.688V10.0428C113.657 9.03015 115.022 8.52661 116.389 8.52661C117.868 8.52661 119.063 9.00433 119.891 9.81843C121.087 10.9983 121.4 12.3746 121.4 13.9752V23.33H117.698Z" fill="white"/>
<path d="M48.9083 19.7067C48.5853 19.8088 48.255 19.8992 47.9272 19.9765C47.5981 20.0545 47.2656 20.1144 46.9375 20.1551C45.9328 20.2808 45.0831 20.213 44.3538 19.9263C43.8662 19.7353 43.4427 19.4553 43.0953 19.0943C42.7464 18.7316 42.4731 18.2854 42.2836 17.7674C42.0921 17.2455 41.9949 16.6463 41.9949 15.9857C41.9949 15.3527 42.0858 14.7639 42.2635 14.2355C42.441 13.7116 42.6998 13.2604 43.0336 12.8953C43.3681 12.5305 43.7849 12.2413 44.2725 12.0364C45.2385 11.6309 46.499 11.6451 47.857 11.9604C48.5256 12.1147 49.1552 12.3368 49.7298 12.6197L49.9354 12.7206V9.07861L49.8335 9.04907C49.3224 8.8995 48.7378 8.77378 48.0956 8.67517C47.4521 8.57649 46.6518 8.52661 45.7168 8.52661C44.5635 8.52661 43.5011 8.70795 42.559 9.06644C41.6142 9.42662 40.7952 9.94516 40.1248 10.6072C39.4523 11.2708 38.9249 12.0809 38.5569 13.0157C38.1888 13.95 38.002 15.0054 38.002 16.1534C38.002 17.3379 38.1742 18.3975 38.5139 19.3028C38.8545 20.2125 39.3537 20.9863 39.9982 21.6035C40.6437 22.221 41.4377 22.6921 42.3586 23.0046C43.2755 23.3152 44.3249 23.4726 45.4761 23.4726C46.2729 23.4726 47.0483 23.4063 47.7807 23.2754C48.5158 23.143 49.2348 22.9378 49.9168 22.666L50.0056 22.6307V19.2918L49.807 19.3768C49.5306 19.4948 49.2283 19.6061 48.9083 19.7067Z" fill="white"/>
</g>
<defs>
<clipPath id="clip0_1_6210">
<rect width="122" height="32" fill="white" transform="translate(0.285645)"/>
</clipPath>
</defs>
</svg>
