<svg width="81" height="32" viewBox="0 0 81 32" fill="none" xmlns="http://www.w3.org/2000/svg">
<g clip-path="url(#clip0_1_6225)">
<path d="M62.9971 0.229492V15.9668L62.7955 16.1327L62.5939 16.2985L62.4006 16.4726L62.2158 16.6467L62.0394 16.8209L61.863 17.0033L61.695 17.1857L61.527 17.3681V0.229492H43.8613V14.5573H42.3997V0.229492H24.734V14.5822H23.2724V0.229492H5.60664V16.5887L1.0957 31.4223H5.06062L7.05148 24.8554H7.62268L10.9156 31.4223H15.7038L12.5117 24.8554H19.7527L17.745 31.4223H22.0711L24.0536 24.872H25.0112V24.8553H26.372H26.4813H34.6547L32.7394 31.4057H37.1075L38.964 24.8553H40.9297L40.98 31.4057H44.6425L48.851 24.8553H51.6063L50.1783 31.4057H54.4792L55.882 24.8553H58.3685L58.3517 25.2284L58.3606 25.6099L58.3774 25.9747L58.411 26.3395L58.4361 26.5136L58.4613 26.6878L58.4949 26.8619L58.5285 27.036L58.5704 27.2101L58.6124 27.376L58.6628 27.5418L58.7131 27.7076L58.772 27.8735L58.8308 28.031L58.898 28.1885L58.9652 28.3378L59.0409 28.4953L59.1165 28.6446L59.2005 28.7855L59.2846 28.9348L59.377 29.0757L59.4778 29.2084L59.5786 29.3494L59.6878 29.4737L59.797 29.6064L59.9062 29.7308L60.0322 29.8551L60.1582 29.9712L60.3178 30.1039L60.4774 30.2365L60.6454 30.3609L60.8218 30.477L60.9983 30.5931L61.1747 30.7009L61.3595 30.792L61.5527 30.8915L61.7375 30.9744L61.9307 31.0573L62.1239 31.132L62.3255 31.2066L62.5271 31.273L62.7287 31.331L62.9303 31.3891L63.1319 31.4388L63.5351 31.53L63.9467 31.5964L64.3499 31.6544L64.7531 31.7041L65.148 31.7373L65.5344 31.7539L65.9124 31.7705H66.2736L66.7608 31.7627L67.248 31.7548L67.7436 31.7299L68.2392 31.705L68.7349 31.6635L69.2305 31.622L69.7261 31.5723L70.2217 31.5142L70.7257 31.4479L71.2297 31.3732L71.7337 31.2903L72.2378 31.2074L72.7418 31.1162L73.2458 31.0168L73.7498 30.9173L74.2622 30.8012L75.7575 24.8561H80.6632V0.230259L62.9971 0.229492ZM7.24468 24.2418L7.26986 24.1506L7.3287 24.2418H7.24468ZM22.6339 15.4196L22.3819 16.257L20.0299 23.9682L19.9374 24.2418H12.2092L11.6128 22.9815L19.9374 14.5822H14.5865L8.07627 21.5056L10.1847 14.5822H6.23663V0.851364H22.6339V15.4196ZM27.1953 21.9367L27.0693 21.9446L26.9517 21.9525L26.8257 21.9603H26.6913H26.5149H26.3637L26.2208 21.9682H26.0864L25.0364 21.9603L25.5236 20.186L25.7504 19.3071L26.3048 17.2425H26.4813H26.6661L26.8425 17.2346H27.0105H27.8253L28.3209 17.2425L28.7745 17.2591L28.9761 17.267L29.1693 17.2836L29.3541 17.3085L29.5221 17.3333L29.6733 17.3582L29.8161 17.3997L29.9505 17.4412L30.0681 17.491L30.1689 17.5407L30.2614 17.6071L30.3454 17.6735L30.4126 17.7564L30.4545 17.8228L30.4881 17.8892L30.5217 17.9638L30.5469 18.0467L30.5636 18.1379L30.5725 18.2291V18.3286V18.4363L30.5636 18.5524L30.5557 18.6685L30.5306 18.8012L30.5054 18.9338L30.4297 19.2157L30.3373 19.5308L30.2449 19.7962L30.1441 20.0532L30.0349 20.2936L29.9173 20.5175L29.8584 20.617L29.7996 20.7165L29.7323 20.816L29.6567 20.9072L29.581 20.9983L29.5054 21.0812L29.4214 21.1642L29.3373 21.2388L29.2449 21.3052L29.1525 21.3798L29.0517 21.4378L28.9425 21.5042L28.8333 21.5622L28.7157 21.612L28.5981 21.6618L28.4721 21.7033L28.3377 21.753L28.1949 21.7862L28.0436 21.8193L27.8924 21.8525L27.7244 21.8773L27.5564 21.9022L27.38 21.9188L27.1952 21.9355L27.1953 21.9367ZM39.1404 24.2418L40.8625 18.189L40.9297 24.2418H39.1404ZM41.7613 14.5573H37.662L34.8395 24.2418H30.4882L30.6898 24.1589L30.8914 24.076L31.0846 23.9931L31.2778 23.9019L31.4626 23.8108L31.639 23.703L31.8154 23.6035L31.9834 23.4957L32.1514 23.3796L32.311 23.2635L32.4622 23.1474L32.6134 23.0148L32.7562 22.8904L32.8906 22.7494L33.025 22.6168L33.151 22.4675L33.277 22.3266L33.3946 22.169L33.5038 22.0198L33.613 21.8539L33.7139 21.6881L33.8063 21.5223L33.8987 21.3482L33.9827 21.1658L34.0668 20.9833L34.1424 20.8009L34.2096 20.6102L34.2768 20.4112L34.3272 20.2122L34.386 20.0132L34.428 19.7976L34.47 19.5904L34.5288 19.2587L34.5792 18.9436L34.6128 18.6451L34.6379 18.3632L34.6468 18.0813L34.6379 17.8243L34.63 17.5672L34.5965 17.3268L34.5629 17.1029L34.504 16.879L34.4452 16.6717L34.3611 16.4727L34.2687 16.282L34.1679 16.0913L34.0503 15.9172L33.9159 15.7514L33.8067 15.6353L33.6975 15.5192L33.5799 15.4197L33.4539 15.3285L33.3195 15.2374L33.1851 15.1545L33.0423 15.0798L32.8995 15.0135L32.7483 14.9471L32.5971 14.8973L32.4375 14.8475L32.2779 14.7978L32.1099 14.7563L31.9418 14.7231L31.7738 14.69L31.5974 14.6651L31.2362 14.6154L30.875 14.5905L30.5054 14.5656L30.1274 14.5577H29.3714H28.6238H28.3886H27.9685H27.4477H26.8681H26.3053H25.8265H25.4905H25.3645V0.851806H41.7617L41.7613 14.5573ZM51.7239 24.2418H49.2627L52.9924 18.4377L51.7239 24.2418ZM60.8886 14.8309L60.8797 18.189L60.6697 18.4792L60.4765 18.7777L60.2833 19.0762L60.1069 19.3747L59.9389 19.6732L59.7709 19.9799L59.6281 20.2784L59.4853 20.5769L59.3509 20.8671L59.2333 21.1656L59.1157 21.4558L59.0149 21.7378L58.9224 22.0197L58.8384 22.2933L58.7628 22.5586L58.6955 22.8239L58.6535 22.9981L58.6116 23.1805L58.5696 23.3546L58.536 23.537L58.5025 23.7111L58.4773 23.8853L58.4521 24.0594L58.4353 24.2418H56.0244L58.0825 14.5822L51.1439 14.5743L44.9361 24.2422H44.4825V0.851787H60.8882L60.8886 14.8309ZM70.3473 28.1969L70.0029 28.2549L69.65 28.3046L69.2972 28.3544L68.9528 28.3959L68.6084 28.4291L68.264 28.4539L67.928 28.4706H67.592H67.3736L67.1552 28.4627L66.9452 28.4461L66.7352 28.4212L66.5336 28.388L66.3404 28.3549L66.1471 28.3134L65.9623 28.2636L65.7859 28.2056L65.6095 28.1476L65.4415 28.0729L65.2819 27.9983L65.1223 27.9071L64.9711 27.816L64.8283 27.7165L64.6939 27.617L64.5595 27.5009L64.4419 27.3765L64.3243 27.2521L64.2151 27.1112L64.1143 26.9702L64.0219 26.8127L63.9378 26.6552L63.8538 26.4893L63.7865 26.3152L63.7277 26.1245L63.6773 25.9338L63.627 25.7348L63.5934 25.5275L63.5682 25.3119L63.5514 25.0881L63.5425 24.8559H71.1868L70.3473 28.1969ZM80.0411 24.2418H75.9082L76.5886 21.5388H68.306L67.6256 24.2418H63.6187V23.6863L63.669 23.4541L63.711 23.2219L63.7614 22.9732L63.8117 22.7244L63.8874 22.4508L63.963 22.1772L64.047 21.9036L64.1395 21.6382L64.2403 21.3729L64.3495 21.1076L64.4671 20.8506L64.5847 20.5935L64.7191 20.3365L64.8535 20.096L64.9963 19.8473L65.1559 19.6151L65.3155 19.383L65.4751 19.1591L65.6515 18.9435L65.8363 18.7362L66.0295 18.5372L66.2227 18.3548L66.4327 18.1724L66.6427 17.9983L66.8612 17.8407L67.0964 17.6915L67.3316 17.5588L67.5752 17.4344L67.8272 17.3184L68.0876 17.2189L68.3564 17.136L68.6336 17.0696L68.9192 17.0116L69.2132 16.9701L69.5156 16.9452L69.8264 16.9373L70.07 16.9452L70.3136 16.9618L70.5573 16.9949L70.7925 17.0447L70.9101 17.0778L71.0193 17.111L71.1285 17.1441L71.2293 17.1939L71.3301 17.2354L71.4309 17.2934L71.5233 17.3514L71.6157 17.4095L71.6998 17.4841L71.7838 17.5587L71.8594 17.6334L71.9351 17.7246L72.0023 17.8075L72.0612 17.907L72.1115 18.0147L72.1619 18.1225L72.2039 18.2386L72.2374 18.363L72.2626 18.4874L72.2878 18.6283L72.2967 18.7693V18.9185V19.0761L72.2799 19.2419H77.2192L77.2949 18.9019L77.3621 18.5122L77.3957 18.3049L77.4125 18.0811L77.4293 17.8572V17.625L77.4214 17.3846L77.3962 17.1358L77.371 17.0198L77.3542 16.8954L77.3207 16.771L77.2871 16.6466L77.2451 16.514L77.2032 16.3896L77.1528 16.2652L77.0939 16.1409L77.0351 16.0165L76.9594 15.8921L76.8838 15.7677L76.7998 15.6434L76.699 15.5107L76.5898 15.3863L76.4806 15.2619L76.363 15.1459L76.237 15.0298L76.1025 14.922L75.9681 14.8225L75.8253 14.723L75.6741 14.6235L75.5229 14.5406L75.3633 14.4577L75.1953 14.3748L75.0273 14.3001L74.8509 14.2255L74.6661 14.1591L74.4813 14.0927L74.2965 14.0347L74.0949 13.985L73.9017 13.9352L73.6917 13.8854L73.4817 13.8439L73.2717 13.8024L73.0533 13.7693L72.8265 13.7444L72.3644 13.6946L71.894 13.6531L71.3984 13.6365L70.8944 13.6287L70.5164 13.6365L70.1216 13.6444L69.71 13.6693L69.2816 13.7024L68.8363 13.7522L68.3827 13.8102L67.9207 13.8848L67.4503 13.9843L67.2151 14.0341L66.9715 14.0921L66.7363 14.1585L66.4927 14.2249L66.2491 14.2995L66.0055 14.3824L65.7619 14.4653L65.5267 14.5565L65.2831 14.656L65.0394 14.7638L64.8042 14.8716L64.5606 14.9877L64.3254 15.112L64.0902 15.2447L63.855 15.3774L63.6198 15.5266V0.850587H80.0423V24.241L80.0411 24.2418Z" fill="white"/>
</g>
<defs>
<clipPath id="clip0_1_6225">
<rect width="80" height="32" fill="white" transform="translate(0.714355)"/>
</clipPath>
</defs>
</svg>
