<svg width="172" height="32" viewBox="0 0 172 32" fill="none" xmlns="http://www.w3.org/2000/svg">
<g clip-path="url(#clip0_1_6229)">
<path d="M18.2652 7.92777V8.15427C16.8287 8.48145 16.2714 9.02255 15.9494 10.5452H15.6646C15.3426 9.02255 14.8349 8.48145 13.3364 8.15427V7.92777C14.8349 7.60059 15.3426 7.05949 15.6646 5.53687H15.9494C16.2714 7.07208 16.8287 7.61318 18.2652 7.92777Z" fill="white"/>
<path d="M16.3141 31.9372H22.4317C22.4317 29.1059 25.5525 25.0414 25.5525 18.9257C25.5525 13.716 24.698 10.8973 24.1779 9.58858C23.7568 8.50638 23.2615 7.8772 22.2088 7.8772C21.1562 7.8772 20.1407 8.29246 19.8559 10.6959C19.0385 17.8435 15.8806 21.9835 16.3141 31.9372Z" fill="white"/>
<path d="M15.3859 31.9372H9.26822C9.26822 29.1059 6.14746 25.0414 6.14746 18.9257C6.14746 13.716 7.00195 10.8973 7.52208 9.58858C7.94313 8.50638 8.43849 7.8772 9.49113 7.8772C10.5437 7.8772 11.5592 8.29246 11.8441 10.6959C12.6614 17.8435 15.8193 21.9835 15.3859 31.9372Z" fill="white"/>
<path d="M15.8768 31.9999H15.7158C14.3907 31.9999 13.2761 31.27 12.4959 29.8858C11.8148 28.6652 11.3938 27.0041 11.2947 25.0411C11.0842 21.2534 10.6631 14.0555 10.4154 10.8215C10.304 9.39955 9.85816 9.28629 9.44949 9.28629C8.96652 9.28629 8.68169 9.67639 8.39686 10.6957C8.14918 11.6017 7.29469 15.8676 7.62905 20.2089C7.85196 22.8641 8.69407 25.0914 9.43711 27.0671C10.1182 28.8665 10.7003 30.4143 10.7003 31.9244H10.3783C10.3783 30.4772 9.79625 28.9546 9.12751 27.1803C8.37209 25.1921 7.5176 22.9396 7.29469 20.2341C6.93555 15.8424 7.81481 11.5262 8.07488 10.6076C8.31017 9.75189 8.64454 8.94653 9.43711 8.94653C10.242 8.94653 10.6136 9.50022 10.7126 10.7838C10.9603 14.0178 11.3814 21.2282 11.5919 25.0033C11.691 26.9161 12.0996 28.5394 12.7436 29.7096C13.4743 31.0058 14.4526 31.6601 15.691 31.6601H15.852C16.4836 31.6601 17.0532 31.4839 17.561 31.1442C18.0439 30.817 18.4774 30.3388 18.8365 29.7096C19.5053 28.5394 19.9387 26.8783 20.0501 25.0033C20.2607 21.2156 20.6817 14.0178 20.9294 10.7838C21.0285 9.48763 21.4124 8.94653 22.205 8.94653C23.0099 8.94653 23.3319 9.73931 23.5672 10.6076C23.8149 11.5262 24.6941 15.855 24.3474 20.2341C24.1245 22.927 23.27 25.2047 22.5146 27.2055C21.8458 28.9924 21.2638 30.5276 21.2638 31.9747H20.9418C20.9418 30.4521 21.5362 28.8917 22.205 27.0796C22.948 25.104 23.7901 22.8515 24.013 20.2089C24.3721 15.8676 23.4929 11.5891 23.2452 10.6957C22.9604 9.67639 22.6755 9.28629 22.1926 9.28629C21.7839 9.28629 21.3505 9.39955 21.2266 10.8215C20.9789 14.0555 20.5579 21.2534 20.3474 25.0411C20.2483 26.9916 19.8149 28.6526 19.0966 29.8984C18.3535 31.27 17.2142 31.9999 15.8768 31.9999Z" fill="white"/>
<path d="M15.858 31.8493C11.6599 31.8493 7.70942 30.1883 4.74965 27.1808C1.7775 24.1733 0.142822 20.1717 0.142822 15.9184C0.142822 11.6651 1.7775 7.66347 4.74965 4.66855C7.7218 1.66105 11.6599 0 15.858 0C20.0562 0 24.0067 1.66105 26.9665 4.66855C29.9386 7.67605 31.5733 11.6777 31.5733 15.9184C31.5733 20.1591 29.9386 24.1733 26.9665 27.1682C23.9943 30.1757 20.0438 31.8493 15.858 31.8493ZM15.858 0.377511C7.39982 0.377511 0.501957 7.34888 0.501957 15.9184C0.501957 24.4879 7.37505 31.4718 15.8457 31.4718C24.3163 31.4718 31.2018 24.5005 31.2018 15.9184C31.2018 7.34888 24.3039 0.377511 15.858 0.377511Z" fill="white"/>
<path d="M164.186 12.1599C160.523 12.1599 157.546 15.1511 157.546 18.8735C157.546 22.5626 160.49 25.587 164.186 25.587C167.849 25.587 170.826 22.5958 170.826 18.8735C170.826 15.1511 167.882 12.1599 164.186 12.1599ZM164.186 23.7591C161.537 23.7591 159.345 21.5988 159.345 18.8735C159.345 16.1814 161.504 13.9879 164.186 13.9879C166.835 13.9879 169.027 16.1482 169.027 18.8735C169.027 21.5988 166.868 23.7591 164.186 23.7591Z" fill="white"/>
<path d="M89.6758 12.1599C87.8115 12.1599 86.3724 13.6555 85.9799 14.8852V12.6917H80.4849V14.5196H84.1809V23.2938H80.4849V25.1217H90.5917V23.2938H86.0126V17.7435C86.0126 16.9126 86.7321 13.8882 89.1852 13.8882C89.9375 13.8882 90.6244 14.0876 91.0823 14.6193C90.886 14.852 90.8206 15.1511 90.8206 15.4835C90.8206 16.2811 91.4421 16.9126 92.2271 16.9126C93.0775 16.9126 93.6008 16.2146 93.6008 15.3505C93.6008 13.9879 92.0308 12.1599 89.6758 12.1599Z" fill="white"/>
<path d="M136.653 12.1599C134.788 12.1599 133.349 13.6555 132.957 14.8852V12.6917H127.462V14.5196H131.158V23.2938H127.462V25.1217H137.536V23.2938H132.957V17.7435C132.957 16.9126 133.676 13.8882 136.129 13.8882C136.882 13.8882 137.569 14.0876 138.026 14.6193C137.83 14.852 137.765 15.1511 137.765 15.4835C137.765 16.2811 138.386 16.9126 139.171 16.9126C140.022 16.9126 140.545 16.2146 140.545 15.3505C140.578 13.9879 139.04 12.1599 136.653 12.1599Z" fill="white"/>
<path d="M106.642 18.0413C107.427 18.0413 108.048 17.4099 108.048 16.6122C108.048 16.5457 108.048 16.4793 108.048 16.4128C107.852 14.751 105.301 12.1919 101.998 12.1919C98.3013 12.1919 95.2595 15.2163 95.2595 18.9054C95.2595 22.6278 98.2686 25.619 101.998 25.619C104.549 25.619 106.806 24.1899 107.918 22.0296L106.478 21.0325C105.595 22.661 103.927 23.7578 101.998 23.7578C99.3153 23.7578 97.1893 21.5643 97.1893 18.8722C97.1893 16.1801 99.3153 13.9866 101.998 13.9866C103.502 13.9866 104.745 14.5516 105.595 15.5487C105.366 15.7813 105.203 16.1469 105.203 16.5457C105.236 17.4099 105.857 18.0413 106.642 18.0413Z" fill="white"/>
<path d="M151.26 14.5181H152.765L149.527 22.9932L145.994 14.5514H147.532V12.6902H142.266V14.5181H144.065L148.578 25.4526L146.06 32H147.99L154.695 14.5514H156.559V12.6902H151.26V14.5181Z" fill="white"/>
<path d="M61.2258 17.4763C61.2258 14.2193 59.0998 12.1919 56.4178 12.1919C54.3245 12.1919 52.6237 13.7207 51.8714 15.2496C51.1518 13.3219 49.4183 12.1919 47.4558 12.1919C45.4933 12.1919 43.7925 13.6875 43.3019 14.9172V12.7237H39.5732V14.5516H41.503V25.1205H43.3019V17.6757C43.3019 16.8116 44.2832 13.7872 47.2269 13.7872C48.6006 13.7872 50.4976 15.0501 50.4976 17.6425V25.0872H52.2966C52.2966 25.0872 52.2966 17.7754 52.2966 17.6425C52.2966 16.7784 53.2124 13.7872 56.1888 13.7872C57.5625 13.7872 59.4596 14.9172 59.4596 17.4763V25.054H63.1883V23.2593H61.2585L61.2258 17.4763Z" fill="white"/>
<path d="M71.7996 12.1597C68.1036 12.1597 65.1599 15.1176 65.1599 18.84C65.1599 18.9729 65.1926 19.4382 65.1926 19.5379C65.5197 22.9279 68.398 25.5868 71.865 25.5868C74.4162 25.5868 76.6731 24.1576 77.7851 21.9973L76.346 21.0003C75.4629 22.6288 73.7948 23.7256 71.865 23.7256C69.3792 23.7256 67.3513 21.8976 66.9915 19.4715H78.1122C78.1449 19.272 78.1449 19.0062 78.1449 18.8067C78.2103 15.1509 75.4956 12.1597 71.7996 12.1597ZM67.0897 17.71C67.613 15.5497 69.51 13.9544 71.7996 13.9544C74.0891 13.9544 75.7572 15.5829 76.2806 17.71H67.0897Z" fill="white"/>
<path d="M122.784 12.6902H120.985V20.0684C120.985 21.7635 119.251 24.0235 117.06 24.0235C115.686 24.0235 113.822 22.694 113.822 20.3011V12.7234H110.093V14.5514H112.023V20.434C112.023 23.6911 114.182 25.6188 116.831 25.6188C118.695 25.6188 120.134 24.4555 120.985 23.2258V25.1535H124.714V23.3255H122.784V12.6902Z" fill="white"/>
</g>
<defs>
<clipPath id="clip0_1_6229">
<rect width="171" height="32" fill="white" transform="translate(0.142822)"/>
</clipPath>
</defs>
</svg>
