<svg width="102" height="32" viewBox="0 0 102 32" fill="none" xmlns="http://www.w3.org/2000/svg">
<g clip-path="url(#clip0_1_6245)">
<mask id="mask0_1_6245" style="mask-type:luminance" maskUnits="userSpaceOnUse" x="0" y="0" width="101" height="32">
<path d="M100.991 0H0.571533V32H100.991V0Z" fill="white"/>
</mask>
<g mask="url(#mask0_1_6245)">
<path d="M16.5715 32C25.4081 32 32.5715 24.8366 32.5715 16C32.5715 7.16345 25.4081 0 16.5715 0C7.73497 0 0.571533 7.16345 0.571533 16C0.571533 24.8366 7.73497 32 16.5715 32Z" fill="white"/>
<path d="M26.6746 15.0219L22.1553 10.5026L22.1471 10.4944L22.1293 10.4788C22.1 10.4523 22.0694 10.4274 22.0376 10.4042C22.0152 10.3863 21.9928 10.3692 21.969 10.3535C21.9585 10.3461 21.9481 10.3401 21.9369 10.3334C21.6793 10.1646 21.3676 10.0989 21.0638 10.1494C20.7599 10.1998 20.4862 10.3626 20.2968 10.6055L13.2682 17.6348V11.3726C13.2682 11.0434 13.1374 10.7277 12.9046 10.4949C12.6719 10.2621 12.3561 10.1313 12.0269 10.1313C11.6977 10.1313 11.382 10.2621 11.1492 10.4949C10.9164 10.7277 10.7857 11.0434 10.7857 11.3726V17.6348L8.21968 15.0688C7.98513 14.8452 7.6724 14.7221 7.34833 14.726C7.02426 14.7298 6.71455 14.8603 6.48538 15.0894C6.25621 15.3186 6.12576 15.6283 6.12191 15.9524C6.11806 16.2765 6.24111 16.5892 6.46476 16.8237L11.1495 21.5085C11.1789 21.5383 11.21 21.5664 11.2427 21.5927C11.274 21.6181 11.3068 21.6427 11.3396 21.6673C11.5088 21.777 11.7023 21.8437 11.9032 21.8619H11.9084C11.9487 21.8656 11.9889 21.8678 12.0292 21.8678H12.0478C12.0816 21.8678 12.1152 21.8663 12.1485 21.8633H12.1731C12.2051 21.8596 12.2372 21.8559 12.2685 21.8492H12.2826C12.3177 21.8417 12.3527 21.8335 12.387 21.8231H12.393C12.4304 21.8118 12.4672 21.7986 12.5033 21.7836C12.5547 21.7623 12.6046 21.7374 12.6524 21.709L12.6807 21.6926C12.7276 21.664 12.7725 21.6321 12.8149 21.5972L12.8276 21.586C12.8537 21.5636 12.8798 21.5413 12.9022 21.5159L20.0292 14.3844V20.6273C20.0292 20.9565 20.1599 21.2722 20.3927 21.505C20.6255 21.7378 20.9412 21.8686 21.2704 21.8686C21.5996 21.8686 21.9154 21.7378 22.1481 21.505C22.3809 21.2722 22.5117 20.9565 22.5117 20.6273V14.3651L24.9197 16.7775C25.1534 17.0057 25.4677 17.1325 25.7943 17.1305C26.121 17.1285 26.4337 16.9978 26.6646 16.7668C26.8955 16.5358 27.0261 16.223 27.028 15.8964C27.0298 15.5697 26.9029 15.2555 26.6746 15.0219Z" fill="white"/>
<path d="M38.1614 12.2649H41.8442V21.8849H44.0502V12.2649H47.733V10.2043H38.1614V12.2649Z" fill="white"/>
<path d="M52.5667 13.1045C52.3056 13.1226 52.0471 13.1689 51.7959 13.2425C51.5539 13.3129 51.3223 13.4149 51.107 13.5459C50.8362 13.7039 50.5992 13.9137 50.4092 14.1631C50.3196 14.2816 50.2384 14.4061 50.1662 14.5359V13.1247H48.2197V21.8851H50.4458V17.4076C50.4399 17.1004 50.485 16.7943 50.5792 16.5018C50.6646 16.243 50.8033 16.0049 50.9864 15.803C51.1695 15.6012 51.393 15.44 51.6423 15.3299C51.9163 15.2016 52.2119 15.1258 52.5138 15.1062C52.7988 15.078 53.0865 15.1033 53.3622 15.1808V13.1247C53.0983 13.0919 52.8319 13.0852 52.5667 13.1045Z" fill="white"/>
<path d="M61.7328 14.471C61.4458 13.9064 60.9606 13.4676 60.37 13.2387C59.7702 13.0001 59.0833 12.8809 58.3095 12.8809C57.2553 12.8809 56.4226 13.1082 55.8113 13.563C55.2123 13.9995 54.7735 14.6209 54.5626 15.3313L56.5575 15.9635C56.6987 15.5629 56.9447 15.2846 57.2956 15.1286C57.6131 14.9792 57.9587 14.8989 58.3095 14.893C58.894 14.893 59.3104 15.0147 59.5589 15.2583C59.7535 15.4484 59.8698 15.7264 59.9116 16.0858C59.5388 16.1417 59.1847 16.1946 58.853 16.2431C58.2859 16.3271 57.7777 16.415 57.3284 16.507C56.9346 16.5841 56.5469 16.6898 56.1684 16.8231C55.7554 16.964 55.3738 17.1841 55.0449 17.4709C54.7753 17.7146 54.568 18.0193 54.4403 18.3596C54.3127 18.7158 54.2496 19.092 54.2539 19.4704C54.2488 19.9369 54.3649 20.3967 54.5909 20.8048C54.8212 21.2158 55.1646 21.5521 55.5802 21.774C56.0156 22.015 56.5469 22.1353 57.1741 22.1348C57.9315 22.1348 58.5575 22.0036 59.052 21.7412C59.4767 21.5044 59.8525 21.1889 60.1591 20.8115V21.8918H62.0899V16.5308C62.0916 16.1682 62.0752 15.8057 62.0407 15.4446C62.0032 15.103 61.8986 14.7721 61.7328 14.471ZM59.6723 19.2244C59.5813 19.3927 59.4682 19.5482 59.336 19.6866C59.1461 19.8893 58.9208 20.0555 58.671 20.1771C58.3509 20.3296 57.9989 20.4033 57.6445 20.3918C57.4203 20.3974 57.1971 20.3589 56.9877 20.2785C56.8167 20.2132 56.6687 20.0991 56.562 19.9505C56.4595 19.7986 56.4074 19.6184 56.4129 19.4353C56.4111 19.2972 56.4433 19.1607 56.5068 19.038C56.5783 18.908 56.6779 18.7957 56.7983 18.7092C56.9594 18.5938 57.1349 18.4998 57.3202 18.4296C57.535 18.3516 57.7543 18.2867 57.977 18.2351C58.2255 18.1754 58.5528 18.1091 58.9588 18.036C59.2175 17.9898 59.5336 17.9346 59.8944 17.8735C59.8899 18.0293 59.8832 18.197 59.8713 18.3954C59.8594 18.682 59.7918 18.9636 59.6723 19.2244Z" fill="white"/>
<path d="M72.1877 15.2136C72.0801 14.8147 71.9062 14.4366 71.6733 14.0954C71.4137 13.7226 71.0669 13.4191 70.6631 13.2112C70.2307 12.9791 69.6711 12.863 68.9842 12.863C68.1244 12.863 67.412 13.0494 66.8469 13.4222C66.5877 13.5935 66.3519 13.7977 66.1453 14.0298V13.1247H64.1824V21.8851H66.419V17.4404C66.419 16.8937 66.4796 16.4556 66.6008 16.1261C66.7221 15.7966 66.8787 15.5466 67.0705 15.3761C67.2433 15.2149 67.4518 15.0966 67.6789 15.031C67.8767 14.974 68.0813 14.9439 68.2872 14.9415C68.7573 14.9415 69.1209 15.0471 69.3779 15.2583C69.6319 15.4645 69.8243 15.7366 69.934 16.0448C70.0448 16.3463 70.1131 16.6617 70.1368 16.9819C70.1586 17.2926 70.1693 17.548 70.1688 17.7483V21.8851H72.4053V16.9693C72.4053 16.8202 72.3949 16.5913 72.3733 16.2715C72.3452 15.9137 72.2831 15.5595 72.1877 15.2136Z" fill="white"/>
<path d="M80.4494 17.2471C80.0458 17.0185 79.5118 16.8172 78.8473 16.6433C78.1659 16.4703 77.659 16.3297 77.3265 16.2213C76.994 16.113 76.7751 16.0076 76.6697 15.9052C76.618 15.8562 76.5772 15.7969 76.5499 15.7312C76.5225 15.6654 76.5093 15.5947 76.5109 15.5235C76.5109 15.2693 76.6339 15.0762 76.8799 14.9398C77.1259 14.8034 77.4525 14.7512 77.8573 14.778C78.2738 14.8103 78.6038 14.9211 78.8473 15.1105C78.967 15.203 79.0663 15.3192 79.1389 15.4518C79.2115 15.5845 79.2559 15.7307 79.2693 15.8814L81.5244 15.4751C81.458 14.9672 81.2483 14.4888 80.9198 14.0959C80.5731 13.6931 80.131 13.3837 79.6338 13.1961C79.0511 12.9755 78.4318 12.868 77.8088 12.8792C77.1006 12.8792 76.4856 12.9915 75.9637 13.2162C75.4757 13.4133 75.0543 13.746 74.7493 14.1749C74.4576 14.6065 74.3076 15.1183 74.3199 15.6391C74.3079 16.0402 74.4059 16.4369 74.6032 16.7864C74.7925 17.1035 75.1009 17.3753 75.5283 17.602C75.9557 17.8286 76.5273 18.0341 77.243 18.2185C77.8752 18.3865 78.3414 18.5217 78.6416 18.6241C78.9398 18.7269 79.1351 18.8306 79.2216 18.9364C79.3127 19.0559 79.3587 19.2038 79.3513 19.3539C79.3562 19.4801 79.3291 19.6054 79.2724 19.7182C79.2156 19.831 79.1312 19.9275 79.027 19.9988C78.8093 20.1523 78.5016 20.2291 78.104 20.2291C77.617 20.2291 77.2154 20.1128 76.8993 19.8802C76.581 19.6454 76.3625 19.2995 76.2873 18.9111L74.0291 19.26C74.1752 20.174 74.5875 20.8812 75.2659 21.3817C75.9443 21.8822 76.8352 22.1322 77.9385 22.1317C79.0851 22.1317 79.9827 21.8747 80.6313 21.3608C81.2799 20.8469 81.6054 20.1402 81.6079 19.2406C81.6198 18.8349 81.5247 18.4333 81.3321 18.0761C81.1467 17.7551 80.8525 17.4787 80.4494 17.2471Z" fill="white"/>
<path d="M90.3817 14.471C90.0945 13.9066 89.6093 13.4678 89.0189 13.2387C88.4185 13.0001 87.7317 12.8809 86.9583 12.8809C85.9042 12.8809 85.0715 13.1082 84.4602 13.563C83.8612 13.9996 83.4222 14.6209 83.2107 15.3313L85.2064 15.9635C85.3476 15.5629 85.5936 15.2846 85.9445 15.1286C86.2619 14.9792 86.6075 14.8989 86.9583 14.893C87.5428 14.893 87.9593 15.0147 88.2078 15.2583C88.4024 15.4484 88.5179 15.7264 88.5604 16.0858C88.1877 16.1417 87.8336 16.1946 87.5018 16.2431C86.9347 16.3271 86.4265 16.415 85.9773 16.507C85.5834 16.5841 85.1958 16.6898 84.8173 16.8231C84.3471 16.997 83.9726 17.212 83.6938 17.4679C83.4242 17.7116 83.2168 18.0163 83.0892 18.3566C82.9612 18.7128 82.8981 19.089 82.9028 19.4674C82.8976 19.9339 83.0137 20.3937 83.2398 20.8018C83.4699 21.213 83.8133 21.5493 84.2291 21.771C84.6644 22.012 85.1957 22.1323 85.8229 22.1318C86.5804 22.1318 87.2063 22.0006 87.7009 21.7382C88.1256 21.5014 88.5013 21.1859 88.8079 20.8085V21.8888H90.7388V16.5308C90.7405 16.1682 90.7241 15.8057 90.6896 15.4446C90.6521 15.103 90.5474 14.7721 90.3817 14.471ZM88.3211 19.2244C88.2302 19.3927 88.1171 19.5482 87.9849 19.6866C87.795 19.8893 87.5696 20.0555 87.3199 20.1771C86.9998 20.3296 86.6478 20.4033 86.2933 20.3918C86.0691 20.3974 85.846 20.3589 85.6366 20.2785C85.4656 20.2132 85.3176 20.0992 85.2109 19.9505C85.1084 19.7986 85.0562 19.6184 85.0618 19.4353C85.0599 19.2972 85.0922 19.1607 85.1557 19.038C85.2269 18.9079 85.3266 18.7955 85.4472 18.7092C85.6083 18.5938 85.7837 18.4998 85.9691 18.4296C86.1838 18.3515 86.4032 18.2866 86.6258 18.2351C86.8744 18.1754 87.2016 18.1091 87.6077 18.036C87.8664 17.9898 88.1825 17.9346 88.5433 17.8735C88.5388 18.0293 88.5313 18.197 88.5202 18.3954C88.5076 18.6819 88.44 18.9633 88.3211 19.2244Z" fill="white"/>
<path d="M97.6168 17.5043L100.78 13.1245H98.0544L95.0858 17.3425V10.2043H92.847L92.8306 21.8849H95.0858V17.6668L98.1192 21.8849H100.991L97.6168 17.5043Z" fill="white"/>
</g>
</g>
<defs>
<clipPath id="clip0_1_6245">
<rect width="101" height="32" fill="white" transform="translate(0.571533)"/>
</clipPath>
</defs>
</svg>
