<svg width="122" height="32" viewBox="0 0 122 32" fill="none" xmlns="http://www.w3.org/2000/svg">
<g clip-path="url(#clip0_1_6261)">
<path d="M24.82 7.13669L24.721 7.25871L24.6128 7.1436C22.6344 5.05072 19.9889 3.7121 17.1308 3.3577L17.0088 3.34273V0L17.1619 0.0161151C21.215 0.426958 24.9508 2.3935 27.5838 5.50216L27.7587 5.7082L27.4894 5.73007C26.9722 5.77103 26.4689 5.91686 26.0099 6.1587C25.551 6.40053 25.1461 6.73329 24.82 7.13669Z" fill="white"/>
<path d="M30.6333 12.0321L30.8094 11.833L30.8716 12.092C31.1442 13.2371 31.2783 14.4108 31.271 15.5878C31.2649 18.0044 30.6983 20.3867 29.6157 22.5473L29.5432 22.69L26.7944 20.7688L26.8439 20.6629C27.5818 19.0731 27.961 17.3405 27.9547 15.5878C27.9559 14.8829 27.8958 14.1793 27.7752 13.4848L27.7475 13.3306L27.9041 13.3225C28.4221 13.3003 28.9304 13.1747 29.3991 12.9531C29.8678 12.7315 30.2874 12.4184 30.6333 12.0321Z" fill="white"/>
<path d="M3.31533 15.588C3.30886 17.3408 3.6885 19.0736 4.42728 20.6631L4.47677 20.769L1.72684 22.689L1.65433 22.5486C0.554256 20.3941 -0.0129785 18.0071 0.000225341 15.588C0.00281764 14.505 0.115824 13.4251 0.337492 12.365L0.386988 12.1267L0.566556 12.2913C1.28035 12.9438 2.21014 13.3095 3.1772 13.3181H3.52253L3.49375 13.4804C3.37321 14.1764 3.31351 14.8816 3.31533 15.588Z" fill="white"/>
<path d="M6.49818 7.32547L6.38307 7.45439L6.28292 7.31396C5.68186 6.47561 4.77591 5.9065 3.75976 5.72892L3.52148 5.68863L3.68148 5.50331C6.30001 2.37836 10.0417 0.407658 14.0999 0.0161151L14.2518 0V3.34504L14.1287 3.36C11.1906 3.71961 8.48103 5.12773 6.49818 7.32547Z" fill="white"/>
<path d="M5.90785 23.1492L5.98843 23.2493C7.56125 25.2233 9.70002 26.6692 12.1179 27.3932L12.2722 27.4392L12.2043 27.5854C11.9567 28.1085 11.8263 28.6793 11.8221 29.2579C11.8222 29.708 11.9001 30.1547 12.0523 30.5782L12.1398 30.8211L11.8889 30.759C8.4648 29.9191 5.42743 27.9414 3.27418 25.1497L3.18555 25.0346L5.90785 23.1492Z" fill="white"/>
<path d="M19.0676 27.5876L18.9985 27.4414L19.1539 27.3954C21.5714 26.6711 23.7097 25.2252 25.2823 23.2515L25.364 23.1514L28.0817 25.0403L27.9919 25.1554C25.8305 27.9376 22.7971 29.9131 19.3784 30.7646L19.1275 30.8268L19.2149 30.5839C19.3672 30.1604 19.4451 29.7137 19.4452 29.2636C19.4423 28.6842 19.3135 28.1123 19.0676 27.5876Z" fill="white"/>
<path d="M27.7874 12.2463C27.2464 12.2465 26.7176 12.0863 26.2676 11.7859C25.8177 11.4855 25.467 11.0585 25.2598 10.5588C25.0526 10.059 24.9983 9.50908 25.1037 8.97847C25.2091 8.44787 25.4695 7.96044 25.8519 7.57783C26.2344 7.19522 26.7217 6.93463 27.2523 6.829C27.7828 6.72338 28.3328 6.77748 28.8326 6.98445C29.3324 7.19141 29.7597 7.54196 30.0602 7.99175C30.3608 8.44154 30.5212 8.97036 30.5212 9.51133C30.5212 10.2365 30.2332 10.932 29.7206 11.4448C29.2079 11.9577 28.5126 12.246 27.7874 12.2463ZM3.17735 12.2463C2.63642 12.2463 2.10765 12.0859 1.65788 11.7854C1.20812 11.4849 0.857574 11.0577 0.650571 10.558C0.443568 10.0582 0.389406 9.5083 0.494936 8.97777C0.600465 8.44724 0.860945 7.95991 1.24344 7.57742C1.62593 7.19493 2.11325 6.93445 2.64378 6.82892C3.17431 6.72339 3.72422 6.77755 4.22397 6.98456C4.72372 7.19156 5.15087 7.54211 5.45139 7.99187C5.75191 8.44163 5.91231 8.97041 5.91231 9.51133C5.91231 10.2367 5.62417 10.9323 5.11126 11.4452C4.59835 11.9582 3.90271 12.2463 3.17735 12.2463ZM15.6343 32C15.0933 32.0002 14.5644 31.84 14.1144 31.5395C13.6645 31.2391 13.3138 30.812 13.1066 30.3122C12.8995 29.8124 12.8452 29.2624 12.9507 28.7317C13.0562 28.2011 13.3167 27.7137 13.6993 27.3311C14.0818 26.9485 14.5693 26.688 15.0999 26.5825C15.6305 26.477 16.1805 26.5313 16.6803 26.7385C17.1801 26.9456 17.6073 27.2963 17.9077 27.7463C18.2081 28.1962 18.3684 28.7251 18.3681 29.2662C18.3681 29.9912 18.0801 30.6866 17.5674 31.1993C17.0547 31.712 16.3594 32 15.6343 32Z" fill="white"/>
<path d="M19.4602 12.9742C18.9733 14.9495 15.9356 13.9469 14.933 13.704L15.8136 10.2439C16.7862 10.4557 19.9459 10.9426 19.4602 12.9777V12.9742ZM18.9123 18.595C18.3655 20.782 14.72 19.5975 13.5356 19.2937L14.5071 15.4652C15.6582 15.7691 19.4567 16.3469 18.9123 18.595ZM19.3992 8.9938L20.0979 6.13797L18.3655 5.67754L17.6668 8.47812C17.2064 8.3561 16.7551 8.26517 16.2694 8.14315L16.9681 5.34833L15.2415 4.92358L14.5117 7.77941C14.1468 7.68733 13.752 7.59639 13.3882 7.53538L10.9825 6.92876L10.522 8.782L11.7974 9.08589C12.4961 9.26776 12.6182 9.72359 12.6182 10.0885L11.7974 13.3391C11.8584 13.3691 11.9195 13.3691 11.9793 13.4001C11.9195 13.3691 11.8642 13.3691 11.7974 13.3391L10.6728 17.9262C10.5819 18.1391 10.3701 18.4741 9.8832 18.3521C9.91428 18.382 8.6078 18.0482 8.6078 18.0482L7.72607 20.0534L9.97989 20.6036C10.4058 20.7256 10.8006 20.8165 11.2265 20.9386L10.4967 23.8266L12.2291 24.2525L12.9577 21.3955C13.4182 21.5175 13.8993 21.6396 14.3551 21.7604L13.6265 24.5863L15.3531 25.0111L16.0829 22.1253C19.0596 22.6721 21.2777 22.4591 22.2193 19.7863C22.979 17.6292 22.1894 16.3527 20.6078 15.563C21.7923 15.3201 22.6429 14.5604 22.8858 13.0111C23.1966 10.8781 21.5862 9.75351 19.3992 8.9938Z" fill="white"/>
<path d="M76.5076 11.6016C74.5714 11.1928 72.6164 10.859 70.6426 10.859C64.7588 10.859 60.4072 15.3688 60.2772 21.2338C60.2045 24.4621 61.7343 26.7451 65.1465 26.7451C66.8251 26.7451 68.0234 26.17 69.3517 25.1122L69.0929 26.43H73.0029L76.5076 11.6016ZM56.995 5.0127H52.6059L44.6347 19.9898L43.9893 21.6227V19.9898L43.181 5.0127H39.271L40.5806 26.43H45.6339C49.4888 19.1675 53.14 12.2693 56.9961 5.0127H56.995ZM59.3939 10.0238C58.8336 10.0309 58.2873 9.84801 57.8442 9.50489C57.3839 9.16988 57.1414 8.63222 57.1414 7.92706C57.1351 7.54827 57.2173 7.17325 57.3815 6.83183C57.5338 6.49901 57.7463 6.1972 58.0082 5.94159C58.2713 5.69125 58.5772 5.4901 58.9113 5.34771C59.2543 5.19764 59.6252 5.12179 59.9995 5.12515C60.5599 5.11804 61.1062 5.30095 61.5493 5.64406C62.0096 5.99547 62.2521 6.51673 62.2521 7.2219C62.2491 7.5997 62.1673 7.97273 62.0119 8.31713C61.8598 8.65002 61.6473 8.95185 61.3853 9.20737C61.1218 9.45731 60.816 9.65841 60.4821 9.80125C60.142 9.96009 59.7691 10.0363 59.3939 10.0238ZM57.4026 26.43H53.3028L56.7736 11.8066H60.8863L57.4026 26.43ZM71.8807 14.441L70.6391 19.4697C70.1811 21.3627 68.6325 23.4032 66.5112 23.4032C64.8326 23.4032 64.2247 22.1229 64.261 20.62C64.3348 17.4831 66.2898 14.2361 69.7383 14.2361C70.4547 14.2672 71.1691 14.3356 71.8784 14.441H71.8807Z" fill="white"/>
<path d="M86.5245 15.6465C89.2725 15.1077 90.9874 12.6396 91.0424 10.0415C91.1162 6.60824 87.1699 6.45947 84.4957 6.45947H79.2948L74.4629 26.5402H80.6231C85.4 26.5402 89.7153 24.7832 89.8254 19.3949C89.8804 17.3345 88.7009 15.9429 86.5245 15.6465ZM85.6026 19.9513C85.5475 22.8797 83.1673 23.3483 80.6969 23.3483H79.0921L80.5118 17.4645H81.9327C83.6289 17.4832 85.6577 17.9471 85.6026 19.9513ZM86.8747 11.3031C86.8384 13.401 84.5882 14.4587 82.6519 14.4587H81.2311L82.4118 9.65614H84.238C85.4175 9.65145 86.8935 9.85644 86.8747 11.3031Z" fill="white"/>
<path d="M121.491 7.98305C110.997 4.99606 103.601 9.81624 103.398 19.2668C103.306 24.0179 106.589 26.9873 111.494 26.9873C113.633 26.9873 115.594 26.5785 117.6 25.816L118.521 22.0488C116.603 22.9414 114.5 23.7555 112.341 23.7555C108.893 23.7555 107.288 21.6775 107.159 19.0982C106.864 13.7895 112.286 8.16696 120.659 11.5628L121.491 7.98305Z" fill="white"/>
<path d="M105.86 9.70792L106.635 6.45972H92.8394L92.0464 9.70792H96.9345L92.8394 26.5405H96.9708L101.083 9.70792H105.86Z" fill="white"/>
</g>
<defs>
<clipPath id="clip0_1_6261">
<rect width="122" height="32" fill="white"/>
</clipPath>
</defs>
</svg>
